<svg width="148" height="44" viewBox="0 0 148 44" fill="none" xmlns="http://www.w3.org/2000/svg">
<path d="M146.461 38.3798C146.461 38.9275 146.353 39.4698 146.143 39.9758C145.934 40.4818 145.626 40.9414 145.239 41.3285C144.851 41.7156 144.391 42.0225 143.885 42.2317C143.378 42.4409 142.836 42.5483 142.288 42.5477H5.71216C4.60521 42.5489 3.54312 42.1105 2.75946 41.3288C1.97581 40.5472 1.53477 39.4865 1.53333 38.3798V5.14191C1.53477 4.03475 1.97564 2.97341 2.75913 2.19094C3.54263 1.40847 4.60471 0.968824 5.71216 0.968536H142.287C142.835 0.968536 143.378 1.07649 143.884 1.28624C144.391 1.49598 144.851 1.80341 145.238 2.19095C145.626 2.5785 145.933 3.03858 146.143 3.54491C146.352 4.05124 146.46 4.59391 146.46 5.14191L146.461 38.3798Z" fill="white"/>
<path d="M142.288 43.5174H5.71219C4.34855 43.5171 3.04072 42.976 2.07567 42.0128C1.11062 41.0497 0.56717 39.7431 0.564575 38.3798L0.564575 5.14302C0.566592 3.77907 1.10968 2.47161 2.0747 1.50745C3.03973 0.543296 4.34788 0.00118174 5.71219 3.05176e-05L142.287 3.05176e-05C143.651 0.00175618 144.959 0.544056 145.924 1.50809C146.889 2.47212 147.432 3.77924 147.434 5.14302V38.3798C147.437 41.2136 145.123 43.5174 142.288 43.5174Z" fill="#A6A6A6"/>
<path d="M146.461 38.3798C146.461 38.9275 146.353 39.4698 146.143 39.9758C145.934 40.4818 145.626 40.9414 145.239 41.3285C144.851 41.7156 144.391 42.0225 143.885 42.2317C143.378 42.4409 142.836 42.5483 142.288 42.5477H5.71216C4.60521 42.5489 3.54312 42.1105 2.75946 41.3288C1.97581 40.5472 1.53477 39.4865 1.53333 38.3798V5.14191C1.53477 4.03475 1.97564 2.97341 2.75913 2.19094C3.54263 1.40847 4.60471 0.968824 5.71216 0.968536H142.287C142.835 0.968536 143.378 1.07649 143.884 1.28624C144.391 1.49598 144.851 1.80341 145.238 2.19095C145.626 2.5785 145.933 3.03858 146.143 3.54491C146.352 4.05124 146.46 4.59391 146.46 5.14191L146.461 38.3798Z" fill="black"/>
<path d="M33.3595 21.5296C33.3279 18.0222 36.2321 16.3159 36.3649 16.2365C34.7201 13.8391 32.1708 13.5115 31.275 13.4854C29.1338 13.2601 27.0569 14.7663 25.9662 14.7663C24.8538 14.7663 23.1742 13.5072 21.364 13.5442C19.0345 13.5801 16.8553 14.9284 15.6601 17.0222C13.1935 21.2913 15.0331 27.565 17.3963 31.0157C18.5784 32.7069 19.9598 34.5928 21.7678 34.5264C23.5367 34.4546 24.1974 33.4001 26.332 33.4001C28.447 33.4001 29.0674 34.5264 30.9114 34.4839C32.8098 34.4546 34.005 32.7863 35.1457 31.081C36.5118 29.1451 37.0604 27.2363 37.0822 27.1384C37.0387 27.1231 33.3965 25.7324 33.3595 21.5296ZM29.8762 11.2153C30.8276 10.0259 31.4785 8.40771 31.2978 6.76556C29.9208 6.82651 28.1988 7.71777 27.2072 8.88109C26.3298 9.9062 25.5461 11.5864 25.7485 13.1665C27.2953 13.2819 28.8835 12.3863 29.8762 11.2153Z" fill="white"/>
<path d="M142.288 0H69.1338L97.7869 43.5173H142.288C143.652 43.5162 144.96 42.9744 145.925 42.0107C146.89 41.047 147.433 39.7401 147.435 38.3765V5.14299C147.433 3.77913 146.89 2.47183 145.925 1.50774C144.96 0.543646 143.652 0.00143855 142.288 0Z" fill="url(#paint0_linear_263_5208)"/>
<path d="M58.98 34.2837H56.508L55.1539 30.0298H50.4471L49.1572 34.2837H46.7505L51.4148 19.8015H54.295L58.98 34.2837ZM54.7457 28.2451L53.5211 24.4635C53.3916 24.0771 53.1477 23.1674 52.7907 21.7353H52.7471C52.6035 22.3512 52.3738 23.261 52.0592 24.4635L50.8553 28.2451H54.7457ZM70.9516 28.9339C70.9516 30.7099 70.4694 32.1137 69.5038 33.1443C68.6396 34.0617 67.5652 34.5198 66.284 34.5198C64.9005 34.5198 63.9056 34.0269 63.3015 33.0387V38.518H60.9807V27.2733C60.9807 26.1578 60.9513 25.0141 60.8947 23.841H62.9357L63.0652 25.4962H63.1088C63.8827 24.2491 65.0572 23.6255 66.6334 23.6255C67.8656 23.6255 68.8943 24.112 69.7172 25.0859C70.539 26.0621 70.9516 27.344 70.9516 28.9339ZM68.5873 29.0188C68.5873 28.0024 68.3587 27.1645 67.8994 26.5039C67.3976 25.8172 66.7238 25.4734 65.8791 25.4734C65.3065 25.4734 64.7862 25.6649 64.3214 26.0425C63.8555 26.4234 63.5507 26.9207 63.4081 27.5366C63.3445 27.767 63.3083 28.0041 63.3004 28.2429V29.9852C63.3004 30.7437 63.5333 31.3846 63.9992 31.9092C64.4651 32.4315 65.0703 32.6938 65.8148 32.6938C66.6889 32.6938 67.3693 32.3553 67.8558 31.6839C68.3435 31.0103 68.5873 30.1223 68.5873 29.0188ZM82.9656 28.9339C82.9656 30.7099 82.4834 32.1137 81.5179 33.1443C80.6525 34.0617 79.5792 34.5198 78.2969 34.5198C76.9134 34.5198 75.9185 34.0269 75.3144 33.0387V38.518H72.9936V27.2733C72.9936 26.1578 72.9643 25.0141 72.9076 23.841H74.9486L75.0782 25.4962H75.1217C75.8946 24.2491 77.0691 23.6255 78.6463 23.6255C79.8775 23.6255 80.9061 24.112 81.7312 25.0859C82.5519 26.0621 82.9656 27.344 82.9656 28.9339ZM80.6002 29.0188C80.6002 28.0024 80.3705 27.1645 79.9112 26.5039C79.4094 25.8172 78.7378 25.4734 77.8931 25.4734C77.3205 25.4734 76.8002 25.6649 76.3332 26.0425C75.8673 26.4234 75.5636 26.9207 75.421 27.5366C75.3503 27.8239 75.3122 28.0579 75.3122 28.2429V29.9852C75.3122 30.7437 75.5462 31.3846 76.0099 31.9092C76.4758 32.4304 77.081 32.6938 77.8278 32.6938C78.7029 32.6938 79.3833 32.3553 79.8687 31.6839C80.3564 31.0103 80.6002 30.1223 80.6002 29.0188ZM96.3979 30.2213C96.3979 31.4543 95.9669 32.4565 95.1102 33.2303C94.1676 34.0747 92.8515 34.4981 91.1643 34.4981C89.6056 34.4981 88.3559 34.1977 87.4133 33.5959L87.9499 31.6621C88.9677 32.265 90.0856 32.5654 91.3026 32.5654C92.1777 32.5654 92.8581 32.3673 93.3435 31.9745C93.8301 31.5805 94.0761 31.0538 94.0761 30.3965C94.0761 29.8078 93.8726 29.3148 93.4731 28.9133C93.0714 28.5128 92.4074 28.1395 91.4746 27.7967C88.9383 26.8511 87.6691 25.4679 87.6691 23.6484C87.6691 22.46 88.1176 21.4872 89.0123 20.7265C89.9071 19.9669 91.0936 19.5871 92.5696 19.5871C93.8878 19.5871 94.9861 19.8167 95.858 20.2749L95.2757 22.1662C94.4549 21.7222 93.5286 21.5002 92.4923 21.5002C91.6738 21.5002 91.0315 21.7015 90.5722 22.102C90.1857 22.46 89.9898 22.8964 89.9898 23.4144C89.9898 23.9857 90.213 24.4602 90.6571 24.8324C91.0424 25.1752 91.7456 25.5484 92.7623 25.9489C94.0097 26.4517 94.9263 27.0371 95.513 27.7097C96.104 28.3822 96.3979 29.2212 96.3979 30.2213ZM104.091 25.5822H101.532V30.6522C101.532 31.9418 101.983 32.585 102.887 32.585C103.301 32.585 103.645 32.5501 103.917 32.4772L103.982 34.2391C103.524 34.4099 102.923 34.4959 102.177 34.4959C101.26 34.4959 100.544 34.2162 100.027 33.6569C99.5122 33.0975 99.2531 32.1605 99.2531 30.8416V25.5778H97.7292V23.8366H99.2531V21.9246L101.532 21.2369V23.8366H104.091V25.5822ZM115.609 28.9764C115.609 30.5815 115.15 31.8994 114.233 32.9299C113.274 33.9909 111.999 34.5198 110.408 34.5198C108.873 34.5198 107.653 34.0116 106.743 32.9963C105.833 31.9788 105.378 30.6969 105.378 29.1505C105.378 27.5323 105.848 26.2068 106.786 25.1763C107.725 24.1446 108.99 23.6288 110.58 23.6288C112.113 23.6288 113.344 24.1381 114.276 25.1545C115.166 26.1404 115.609 27.4137 115.609 28.9764ZM113.204 29.0297C113.204 28.0731 112.997 27.2526 112.582 26.5659C112.095 25.7367 111.399 25.3221 110.496 25.3221C109.567 25.3221 108.854 25.7367 108.368 26.5659C107.953 27.2526 107.746 28.0873 107.746 29.0732C107.746 30.0309 107.953 30.8536 108.368 31.5381C108.87 32.3673 109.57 32.7819 110.477 32.7819C111.364 32.7819 112.06 32.3586 112.562 31.5174C112.989 30.8144 113.204 29.9884 113.204 29.0297ZM123.156 25.8814C122.915 25.8379 122.67 25.8164 122.424 25.8172C121.608 25.8172 120.977 26.1241 120.533 26.7422C120.147 27.2863 119.954 27.9741 119.954 28.8044V34.2837H117.633V27.1296C117.635 26.0334 117.612 24.9373 117.565 23.8421H119.587L119.672 25.8401H119.736C119.982 25.1534 120.367 24.5995 120.896 24.1849C121.38 23.8226 121.969 23.6264 122.574 23.6255C122.788 23.6255 122.982 23.6408 123.154 23.668L123.156 25.8814ZM133.535 28.5683C133.541 28.921 133.512 29.2734 133.45 29.6206H126.488C126.514 30.6522 126.851 31.4423 127.498 31.9864C128.085 32.4718 128.843 32.7155 129.775 32.7155C130.806 32.7155 131.747 32.5523 132.592 32.2226L132.956 33.8321C131.968 34.263 130.801 34.4774 129.454 34.4774C127.834 34.4774 126.563 34.0007 125.638 33.0496C124.715 32.0974 124.252 30.8177 124.252 29.2147C124.252 27.6411 124.682 26.3298 125.543 25.284C126.444 24.1675 127.662 23.6092 129.195 23.6092C130.701 23.6092 131.84 24.1675 132.614 25.284C133.227 26.1687 133.535 27.2657 133.535 28.5683ZM131.322 27.9665C131.338 27.2776 131.186 26.6846 130.871 26.1829C130.47 25.5365 129.851 25.2143 129.023 25.2143C128.264 25.2143 127.646 25.5288 127.176 26.16C126.789 26.6617 126.56 27.2646 126.489 27.9643L131.322 27.9665Z" fill="white"/>
<path d="M49.7777 14.6814C49.1322 14.6814 48.5738 14.6498 48.109 14.5965V7.59478C48.7591 7.49439 49.416 7.4449 50.0738 7.44678C52.7352 7.44678 53.9609 8.75593 53.9609 10.89C53.9609 13.3515 52.5132 14.6814 49.7777 14.6814ZM50.1674 8.34458C49.8082 8.34458 49.5023 8.36634 49.2487 8.41857V13.7411C49.3858 13.7629 49.6493 13.7727 50.0194 13.7727C51.7632 13.7727 52.7559 12.7802 52.7559 10.9215C52.7559 9.26413 51.8579 8.34458 50.1674 8.34458ZM57.7805 14.7347C56.2805 14.7347 55.3085 13.6149 55.3085 12.0946C55.3085 10.5102 56.3012 9.38057 57.8654 9.38057C59.3436 9.38057 60.3375 10.447 60.3375 12.0108C60.3375 13.6149 59.3132 14.7347 57.7805 14.7347ZM57.8241 10.2142C57 10.2142 56.4721 10.9846 56.4721 12.062C56.4721 13.1187 57.0109 13.8891 57.8132 13.8891C58.6154 13.8891 59.1542 13.0653 59.1542 12.0402C59.1542 10.9955 58.6263 10.2142 57.8241 10.2142ZM68.8911 9.48613L67.2855 14.6182H66.2394L65.5743 12.3895C65.409 11.8444 65.2713 11.2912 65.1618 10.7322H65.14C65.0562 11.2915 64.8973 11.8519 64.7285 12.3895L64.021 14.6182H62.9641L61.4532 9.48613H62.6255L63.2068 11.9259C63.3439 12.5071 63.4593 13.0555 63.5551 13.5735H63.5769C63.6607 13.1415 63.7979 12.6017 63.9992 11.9368L64.7285 9.48722H65.6581L66.3559 11.8846C66.5246 12.4657 66.6618 13.0359 66.7684 13.5746H66.7989C66.8729 13.0468 66.9894 12.4864 67.1472 11.8846L67.771 9.48722L68.8911 9.48613ZM74.8017 14.6182H73.6609V11.6713C73.6609 10.7637 73.3126 10.3088 72.6258 10.3088C71.9498 10.3088 71.485 10.89 71.485 11.5657V14.6182H70.3442V10.9531C70.3442 10.4993 70.3333 10.0128 70.3018 9.48504H71.3054L71.3587 10.2773H71.3903C71.6973 9.72881 72.3199 9.38057 73.0176 9.38057C74.0953 9.38057 74.8028 10.2044 74.8028 11.5451L74.8017 14.6182ZM77.9475 14.6182H76.8057V7.1312H77.9475V14.6182ZM82.1068 14.7347C80.6079 14.7347 79.6348 13.6149 79.6348 12.0946C79.6348 10.5102 80.6275 9.38057 82.1906 9.38057C83.6699 9.38057 84.6626 10.447 84.6626 12.0108C84.6637 13.6149 83.6383 14.7347 82.1068 14.7347ZM82.1492 10.2142C81.3252 10.2142 80.7973 10.9846 80.7973 12.062C80.7973 13.1187 81.3372 13.8891 82.1373 13.8891C82.9406 13.8891 83.4783 13.0653 83.4783 12.0402C83.4794 10.9955 82.9526 10.2142 82.1492 10.2142ZM89.1604 14.6182L89.0777 14.0273H89.0472C88.6989 14.5029 88.1905 14.7347 87.5461 14.7347C86.6263 14.7347 85.9732 14.0904 85.9732 13.2242C85.9732 11.9575 87.0715 11.3024 88.9732 11.3024V11.2077C88.9732 10.5319 88.615 10.1935 87.9075 10.1935C87.4013 10.1935 86.9572 10.3208 86.5665 10.5744L86.3346 9.82457C86.8092 9.52857 87.4014 9.38057 88.0969 9.38057C89.438 9.38057 90.115 10.0879 90.115 11.5037V13.394C90.115 13.912 90.1379 14.3135 90.189 14.6193L89.1604 14.6182ZM89.0037 12.062C87.7366 12.062 87.1009 12.3689 87.1009 13.0969C87.1009 13.6356 87.4286 13.8989 87.8836 13.8989C88.4637 13.8989 89.0037 13.456 89.0037 12.8542V12.062ZM95.6545 14.6182L95.6012 13.7944H95.5696C95.242 14.4169 94.6912 14.7347 93.9216 14.7347C92.6839 14.7347 91.7674 13.6464 91.7674 12.1153C91.7674 10.5102 92.7177 9.37948 94.0152 9.37948C94.7021 9.37948 95.1886 9.61128 95.4629 10.077H95.4858V7.1312H96.6277V13.2351C96.6277 13.7313 96.6396 14.196 96.6701 14.6182H95.6545ZM95.4858 11.5984C95.4858 10.8802 95.0101 10.2675 94.2841 10.2675C93.4383 10.2675 92.9212 11.0173 92.9212 12.0729C92.9212 13.1078 93.4579 13.8162 94.2612 13.8162C94.9785 13.8162 95.4858 13.1927 95.4858 12.4537V11.5984ZM103.867 14.7347C102.369 14.7347 101.396 13.6149 101.396 12.0946C101.396 10.5102 102.389 9.38057 103.952 9.38057C105.432 9.38057 106.424 10.447 106.424 12.0108C106.425 13.6149 105.401 14.7347 103.867 14.7347ZM103.91 10.2142C103.087 10.2142 102.559 10.9846 102.559 12.062C102.559 13.1187 103.098 13.8891 103.899 13.8891C104.702 13.8891 105.24 13.0653 105.24 12.0402C105.242 10.9955 104.714 10.2142 103.91 10.2142ZM112.559 14.6182H111.417V11.6713C111.417 10.7637 111.069 10.3088 110.382 10.3088C109.706 10.3088 109.243 10.89 109.243 11.5657V14.6182H108.101V10.9531C108.101 10.4993 108.09 10.0128 108.058 9.48504H109.062L109.115 10.2773H109.147C109.453 9.72881 110.076 9.37948 110.773 9.37948C111.851 9.37948 112.559 10.2033 112.559 11.544V14.6182ZM120.234 10.3415H118.979V12.8335C118.979 13.468 119.199 13.7847 119.643 13.7847C119.845 13.7847 120.013 13.7629 120.15 13.7313L120.181 14.5976C119.96 14.6824 119.664 14.7249 119.296 14.7249C118.397 14.7249 117.859 14.2286 117.859 12.9293V10.3415H117.11V9.48613H117.859V8.5459L118.979 8.20746V9.48504H120.234V10.3415ZM126.274 14.6182H125.134V11.6931C125.134 10.7746 124.787 10.3099 124.099 10.3099C123.508 10.3099 122.957 10.7115 122.957 11.5244V14.6182H121.817V7.1312H122.957V10.2142H122.98C123.339 9.65481 123.859 9.37948 124.523 9.37948C125.61 9.37948 126.274 10.224 126.274 11.5657V14.6182ZM132.461 12.3264H129.037C129.059 13.2982 129.702 13.8467 130.655 13.8467C131.161 13.8467 131.627 13.7618 132.038 13.604L132.216 14.3962C131.73 14.6074 131.159 14.7129 130.494 14.7129C128.888 14.7129 127.938 13.6987 127.938 12.1262C127.938 10.5526 128.911 9.36969 130.365 9.36969C131.677 9.36969 132.5 10.3415 132.5 11.8095C132.507 11.9828 132.494 12.1563 132.461 12.3264ZM131.415 11.5135C131.415 10.7213 131.015 10.1619 130.286 10.1619C129.631 10.1619 129.112 10.7322 129.038 11.5135H131.415Z" fill="white"/>
<defs>
<linearGradient id="paint0_linear_263_5208" x1="108.283" y1="43.6329" x2="108.283" y2="-113.312" gradientUnits="userSpaceOnUse">
<stop stop-color="#1A1A1A" stop-opacity="0.1"/>
<stop offset="0.123" stop-color="#212121" stop-opacity="0.151"/>
<stop offset="0.308" stop-color="#353535" stop-opacity="0.227"/>
<stop offset="0.532" stop-color="#575757" stop-opacity="0.318"/>
<stop offset="0.783" stop-color="#858585" stop-opacity="0.421"/>
<stop offset="1" stop-color="#B3B3B3" stop-opacity="0.51"/>
</linearGradient>
</defs>
</svg>
