<svg width="24" height="24" viewBox="0 0 24 24" fill="none" xmlns="http://www.w3.org/2000/svg">
<path d="M0.215942 9.30392C0.215942 9.07834 0.215942 8.85593 0.215942 8.63035C0.228657 8.60493 0.247729 8.57951 0.254087 8.55091C0.384413 7.925 0.746783 7.47701 1.29352 7.15929C1.91972 6.79391 2.54274 6.42535 3.16259 6.04725C3.24205 5.9996 3.31834 5.90746 3.34695 5.81849C3.60125 5.05278 3.84601 4.28707 4.08441 3.51818C4.37049 2.59042 5.29549 1.98993 6.26499 2.0916C6.94841 2.16467 7.64136 2.16467 8.3216 2.26952C8.76662 2.33624 9.0368 2.15832 9.34196 1.89143C9.9618 1.34495 10.499 0.671374 11.3572 0.455322C11.5956 0.455322 11.8372 0.455322 12.0756 0.455322C12.6796 0.604652 13.1246 0.998629 13.5633 1.40532C13.8589 1.67856 14.164 1.94545 14.4724 2.20598C14.5296 2.25364 14.6154 2.29494 14.6853 2.28859C15.4832 2.23457 16.2842 2.18374 17.0789 2.10431C18.2423 1.98675 19.1228 2.59678 19.3993 3.73741C19.5487 4.35379 19.7013 4.97017 19.8443 5.58656C19.8825 5.74859 19.9556 5.85662 20.105 5.94558C20.8011 6.35227 21.4941 6.76849 22.1839 7.1847C23.1184 7.75025 23.4522 8.7479 23.0453 9.76144C22.7846 10.4128 22.5176 11.0609 22.2411 11.7059C22.1711 11.8711 22.168 12.0077 22.2379 12.173C22.5081 12.8052 22.7687 13.4407 23.0294 14.0761C23.4617 15.1373 23.1311 16.1318 22.1521 16.7228C21.475 17.1326 20.7948 17.5425 20.1114 17.9396C19.9524 18.0318 19.8825 18.1462 19.8443 18.3177C19.7013 18.95 19.5487 19.5823 19.393 20.2114C19.145 21.2249 18.3313 21.8476 17.2919 21.7905C16.4622 21.746 15.6358 21.6729 14.8093 21.6062C14.6567 21.5935 14.5455 21.6348 14.4279 21.7396C13.9797 22.1463 13.5219 22.5435 13.061 22.9406C12.2568 23.6364 11.1633 23.6301 10.3591 22.9311C9.93002 22.5562 9.48818 22.194 9.08131 21.8C8.88741 21.6125 8.69033 21.5966 8.45193 21.6157C7.68268 21.6792 6.91662 21.7491 6.14738 21.7873C5.09523 21.8381 4.28149 21.2122 4.03355 20.1891C3.88097 19.5505 3.72521 18.9119 3.579 18.2733C3.54403 18.1176 3.4741 18.0159 3.32788 17.9333C2.62221 17.5266 1.9229 17.1072 1.22359 16.6878C0.708639 16.3796 0.378056 15.9412 0.250908 15.3502C0.250908 15.3248 0.228657 15.2994 0.215942 15.2739C0.215942 15.0484 0.215942 14.826 0.215942 14.6004C0.285874 14.4066 0.349447 14.2096 0.428915 14.0189C0.689567 13.3771 0.956577 12.7385 1.21405 12.0935C1.24584 12.0109 1.26173 11.8997 1.22994 11.8203C0.896182 10.9815 0.556062 10.1427 0.215942 9.30392ZM4.30374 11.941C4.29102 16.0047 7.62547 19.3472 11.7037 19.363C15.7661 19.3789 19.1164 16.0428 19.1291 11.9633C19.1419 7.89958 15.8074 4.55395 11.7292 4.54125C7.66361 4.52854 4.31645 7.86463 4.30374 11.941Z" fill="white"/>
<path d="M17.7845 11.96C17.7845 15.3152 15.0668 18.019 11.6942 18.0158C8.35337 18.0126 5.65149 15.2897 5.65467 11.9346C5.65784 8.5826 8.3788 5.88831 11.7546 5.89148C15.0827 5.89466 17.7845 8.61437 17.7845 11.96ZM11.0457 13.0975C10.9472 12.964 10.9059 12.8909 10.8486 12.8337C10.1875 12.1697 9.52631 11.512 8.86514 10.8511C8.69349 10.6796 8.49006 10.5747 8.24212 10.6224C7.98147 10.6732 7.7971 10.8226 7.71446 11.0831C7.62227 11.3659 7.72081 11.5946 7.91789 11.7948C8.77932 12.659 9.64074 13.52 10.5053 14.3811C10.8614 14.7337 11.2237 14.7369 11.5829 14.3842C11.9135 14.0602 12.2409 13.7297 12.5683 13.4025C13.541 12.4302 14.5137 11.4548 15.4895 10.4826C15.6739 10.2983 15.7979 10.095 15.747 9.8249C15.6961 9.56437 15.5467 9.38326 15.2861 9.30065C15.0032 9.21169 14.7743 9.30701 14.5741 9.504C13.4679 10.6097 12.3617 11.7154 11.2587 12.821C11.1919 12.8814 11.1474 12.9608 11.0457 13.0975Z" fill="white"/>
</svg>
