<svg width="106" height="28" viewBox="0 0 106 28" fill="none" xmlns="http://www.w3.org/2000/svg">
<g clip-path="url(#clip0_1_2721)">
<path d="M29.1082 5.80011L29.914 6.38095C31.3154 7.50631 32.1212 8.77689 32.2964 10.229C33.803 9.93855 35.7299 10.1564 36.5708 10.7372L37.3416 11.2091L37.2015 11.4995C36.9562 12.0441 36.8861 12.1893 36.8511 12.2619C35.4847 14.9845 32.7869 15.0209 31.5256 14.9845C28.3374 22.9347 21.5404 27.3273 12.361 27.3273C8.12161 27.3273 4.8983 25.9841 2.72607 23.334C-0.146882 19.849 -0.146882 15.3113 0.0983693 13.8592L0.168441 13.5688H25.4994C26.8308 13.5688 27.8469 13.2057 28.3374 12.9153C27.8118 12.1167 27.6366 11.2091 27.6016 10.7009C27.4965 9.24881 27.8469 7.72412 28.5476 6.63506L29.1082 5.80011ZM51.0565 7.48575C51.3391 7.48575 51.5784 7.58007 51.7743 7.76872C51.9702 7.95738 52.0682 8.19559 52.0682 8.48336V17.4619C52.0682 18.9584 51.5415 20.2245 50.488 21.2605C49.4216 22.3093 48.1498 22.8337 46.6723 22.8337C45.182 22.8337 43.9101 22.3093 42.8567 21.2605C41.8032 20.2118 41.2764 18.9456 41.2764 17.4619C41.2764 15.9783 41.8032 14.7121 42.8567 13.6633C43.9101 12.6145 45.182 12.0901 46.6723 12.0901C47.9506 12.0901 49.078 12.4834 50.0544 13.27V8.48336C50.0544 8.19559 50.1491 7.95738 50.3386 7.76872C50.5281 7.58007 50.7674 7.48575 51.0565 7.48575ZM58.6111 12.0901C60.0885 12.0901 61.3604 12.6145 62.4267 13.6633C62.9535 14.1877 63.3469 14.7664 63.6071 15.3995C63.8673 16.0326 64.0005 16.7201 64.007 17.4619C64.007 18.9584 63.4802 20.2245 62.4267 21.2605C61.3604 22.3093 60.0885 22.8337 58.6111 22.8337C57.1208 22.8337 55.8489 22.3093 54.7954 21.2605C53.7419 20.2118 53.2152 18.9456 53.2152 17.4619C53.2152 15.9783 53.7419 14.7121 54.7954 13.6633C55.8489 12.6145 57.1208 12.0901 58.6111 12.0901ZM70.5306 12.0901C71.886 12.0901 73.0583 12.525 74.0475 13.3947C74.2788 13.5993 74.3944 13.8519 74.3944 14.1525C74.3944 14.4403 74.2997 14.6801 74.1102 14.872C73.9207 15.0638 73.6814 15.1597 73.3923 15.1597C73.1482 15.1597 72.9298 15.083 72.7371 14.9295C72.4095 14.6545 72.0658 14.4467 71.7061 14.306C71.3464 14.1653 70.9545 14.095 70.5306 14.095C70.0616 14.095 69.6216 14.1829 69.2105 14.3588C68.7994 14.5346 68.4397 14.7744 68.1313 15.0782C67.823 15.382 67.5805 15.7385 67.4039 16.1477C67.2272 16.557 67.1389 16.9951 67.1389 17.4619C67.1389 17.9288 67.2272 18.3668 67.4039 18.7761C67.5805 19.1854 67.823 19.5419 68.1313 19.8456C68.4397 20.1494 68.7994 20.3892 69.2105 20.5651C69.6216 20.7409 70.0616 20.8289 70.5306 20.8289C70.9545 20.8289 71.3464 20.7601 71.7061 20.6226C72.0658 20.4851 72.4063 20.2789 72.7275 20.0039C72.9073 19.8696 73.1193 19.7993 73.3634 19.7929C73.6525 19.7929 73.8918 19.8872 74.0813 20.0759C74.2708 20.2645 74.3655 20.5027 74.3655 20.7905C74.3655 21.0719 74.2595 21.3181 74.0475 21.5291C73.0519 22.3989 71.8796 22.8337 70.5306 22.8337C69.0403 22.8337 67.7684 22.3093 66.7149 21.2605C65.6614 20.2118 65.1347 18.9456 65.1347 17.4619C65.1347 15.9783 65.6614 14.7121 66.7149 13.6633C67.7684 12.6145 69.0403 12.0901 70.5306 12.0901ZM76.5435 7.48575C76.8197 7.48575 77.0558 7.58327 77.2517 7.77832C77.4476 7.97336 77.5456 8.21158 77.5456 8.49296V15.9751L83.3076 12.2436C83.4682 12.1413 83.6481 12.0901 83.8472 12.0901C83.9885 12.0901 84.1202 12.1157 84.2423 12.1669C84.3643 12.218 84.4703 12.29 84.5602 12.3827C84.6502 12.4754 84.7224 12.5825 84.777 12.7041C84.8316 12.8256 84.8589 12.9535 84.8589 13.0878C84.8589 13.4459 84.7305 13.7113 84.4735 13.8839L80.4363 16.4931L84.5795 21.1358C84.7658 21.3405 84.8589 21.5739 84.8589 21.8361C84.8589 21.9704 84.8316 22.0983 84.777 22.2198C84.7224 22.3413 84.6502 22.4484 84.5602 22.5411C84.4703 22.6339 84.3643 22.7058 84.2423 22.757C84.1202 22.8081 83.9885 22.8337 83.8472 22.8337C83.5774 22.8337 83.3526 22.7474 83.1727 22.5747L78.7211 17.5962L77.5456 18.3636V21.8265C77.5456 22.1015 77.4476 22.3381 77.2517 22.5363C77.0558 22.7346 76.8197 22.8337 76.5435 22.8337C76.2609 22.8337 76.0216 22.7346 75.8257 22.5363C75.6297 22.3381 75.5318 22.1015 75.5318 21.8265V8.49296C75.5318 8.21158 75.6297 7.97336 75.8257 7.77832C76.0216 7.58327 76.2609 7.48575 76.5435 7.48575ZM91.344 12.0901C92.8215 12.0901 94.0933 12.6145 95.1597 13.6633C95.6864 14.1813 96.0815 14.7584 96.3448 15.3947C96.6082 16.031 96.7399 16.7201 96.7399 17.4619C96.7399 17.7497 96.6419 17.9879 96.446 18.1766C96.2501 18.3652 96.0108 18.4595 95.7282 18.4595H88.0969C88.2061 18.8113 88.3667 19.1326 88.5786 19.4236C88.7906 19.7146 89.0395 19.964 89.3254 20.1718C89.6112 20.3796 89.926 20.5411 90.2697 20.6562C90.6133 20.7713 90.9715 20.8289 91.344 20.8289C91.768 20.8289 92.1566 20.7649 92.5099 20.637C92.8632 20.5091 93.1908 20.3173 93.4927 20.0615C93.6855 19.9016 93.9071 19.8185 94.1576 19.8121C94.4467 19.8121 94.6859 19.9064 94.8754 20.0951C95.0649 20.2837 95.1597 20.5219 95.1597 20.8097C95.1597 21.0911 95.0633 21.3309 94.8706 21.5291C93.8749 22.3989 92.6994 22.8337 91.344 22.8337C89.8537 22.8337 88.5819 22.3093 87.5284 21.2605C86.4749 20.2118 85.9481 18.9456 85.9481 17.4619C85.9481 15.9783 86.4749 14.7121 87.5284 13.6633C88.5819 12.6145 89.8537 12.0901 91.344 12.0901ZM103.244 12.0901C103.527 12.0901 103.83 12.1093 104.155 12.1477C104.479 12.1861 104.778 12.2548 105.051 12.3539C105.324 12.453 105.55 12.5889 105.73 12.7616C105.91 12.9343 106 13.1581 106 13.4331C106 13.5738 105.973 13.7049 105.918 13.8264C105.863 13.9479 105.791 14.055 105.701 14.1477C105.611 14.2404 105.505 14.3124 105.383 14.3636C105.261 14.4147 105.13 14.4403 104.988 14.4403C104.866 14.4403 104.725 14.4051 104.564 14.3348C104.16 14.1749 103.72 14.095 103.244 14.095C102.775 14.095 102.335 14.1829 101.924 14.3588C101.513 14.5346 101.155 14.7744 100.85 15.0782C100.545 15.382 100.304 15.7385 100.127 16.1477C99.9505 16.557 99.8622 16.9951 99.8622 17.4619V21.8361C99.8622 22.1111 99.7642 22.3461 99.5683 22.5411C99.3724 22.7362 99.1363 22.8337 98.8601 22.8337C98.5775 22.8337 98.3382 22.7362 98.1423 22.5411C97.9463 22.3461 97.8484 22.1111 97.8484 21.8361V13.0878C97.8484 12.8128 97.9463 12.5778 98.1423 12.3827C98.3382 12.1877 98.5775 12.0901 98.8601 12.0901C99.1363 12.0901 99.3724 12.1877 99.5683 12.3827C99.7642 12.5778 99.8622 12.8128 99.8622 13.0878V13.2796C100.344 12.8959 100.867 12.6017 101.433 12.3971C101.998 12.1925 102.602 12.0901 103.244 12.0901ZM46.6723 14.095C46.197 14.095 45.7537 14.1845 45.3426 14.3636C44.9315 14.5426 44.575 14.784 44.2731 15.0878C43.9712 15.3915 43.7319 15.7481 43.5552 16.1573C43.3786 16.5666 43.2903 17.0015 43.2903 17.4619C43.2903 17.9224 43.3786 18.3572 43.5552 18.7665C43.7319 19.1758 43.9712 19.5323 44.2731 19.8361C44.575 20.1398 44.9315 20.3812 45.3426 20.5603C45.7537 20.7393 46.197 20.8289 46.6723 20.8289C47.1413 20.8289 47.5813 20.7393 47.9924 20.5603C48.4035 20.3812 48.7616 20.1382 49.0667 19.8313C49.3719 19.5243 49.6128 19.1678 49.7894 18.7617C49.9661 18.3556 50.0544 17.9224 50.0544 17.4619C50.0544 17.0015 49.9661 16.5682 49.7894 16.1621C49.6128 15.7561 49.3719 15.3995 49.0667 15.0926C48.7616 14.7856 48.4035 14.5426 47.9924 14.3636C47.5813 14.1845 47.1413 14.095 46.6723 14.095ZM58.6111 14.095C58.1357 14.095 57.6925 14.1845 57.2814 14.3636C56.8703 14.5426 56.5138 14.784 56.2118 15.0878C55.9099 15.3915 55.6707 15.7481 55.494 16.1573C55.3174 16.5666 55.229 17.0015 55.229 17.4619C55.229 17.9224 55.3174 18.3572 55.494 18.7665C55.6707 19.1758 55.9099 19.5323 56.2118 19.8361C56.5138 20.1398 56.8703 20.3812 57.2814 20.5603C57.6925 20.7393 58.1357 20.8289 58.6111 20.8289C59.08 20.8289 59.52 20.7393 59.9311 20.5603C60.3423 20.3812 60.7004 20.1382 61.0055 19.8313C61.3106 19.5243 61.5515 19.1678 61.7282 18.7617C61.9048 18.3556 61.9931 17.9224 61.9931 17.4619C61.9931 17.0015 61.9048 16.5682 61.7282 16.1621C61.5515 15.7561 61.3106 15.3995 61.0055 15.0926C60.7004 14.7856 60.3423 14.5426 59.9311 14.3636C59.52 14.1845 59.08 14.095 58.6111 14.095ZM91.344 14.095C90.9779 14.095 90.6214 14.1525 90.2745 14.2676C89.9276 14.3827 89.6096 14.5442 89.3206 14.752C89.0315 14.9599 88.781 15.2093 88.569 15.5003C88.357 15.7912 88.1996 16.1126 88.0969 16.4643H94.5912C94.482 16.1126 94.3198 15.7912 94.1046 15.5003C93.8894 15.2093 93.6389 14.9599 93.353 14.752C93.0672 14.5442 92.7524 14.3827 92.4087 14.2676C92.0651 14.1525 91.7102 14.095 91.344 14.095ZM6.7552 9.21251V12.8427H2.90125V9.21251H6.7552ZM11.3099 9.21251V12.8427H7.45592V9.21251H11.3099ZM15.8646 9.21251V12.8427H12.0106V9.21251H15.8646ZM20.4192 9.21251V12.8427H16.5653V9.21251H20.4192ZM24.9739 9.21251V12.8427H21.1199V9.21251H24.9739ZM20.4192 4.85626V8.48647H16.5653V4.85626H20.4192ZM15.8646 4.85626V8.48647H12.0106V4.85626H15.8646ZM11.3099 4.85626V8.48647H7.45592V4.85626H11.3099ZM20.4192 0.5V4.13021H16.5653V0.5H20.4192Z" fill="#2396ED"/>
</g>
<defs>
<clipPath id="clip0_1_2721">
<rect width="106" height="27" fill="white" transform="translate(0 0.5)"/>
</clipPath>
</defs>
</svg>
