<svg width="22" height="21" viewBox="0 0 22 21" fill="none" xmlns="http://www.w3.org/2000/svg">
<path d="M8.47392 20.5267C7.16336 20.5267 5.85279 20.5326 4.54222 20.5267C3.70766 20.5208 2.90401 20.3908 2.19309 19.93C1.38326 19.41 0.999977 18.636 0.882521 17.7438C0.684699 16.2017 0.969068 14.7542 1.88399 13.4484C2.70619 12.2785 3.89312 11.6227 5.32114 11.3805C5.86515 11.2918 6.42153 11.2623 6.97172 11.2564C8.42447 11.2387 9.87722 11.2328 11.3362 11.2387C12.8631 11.2505 14.186 11.7527 15.305 12.7512C15.4966 12.9226 15.5337 13.088 15.3977 13.3007C15.3111 13.4366 15.2308 13.5784 15.1751 13.732C15.0577 14.0688 14.8104 14.187 14.458 14.2165C14.0315 14.252 13.6049 14.311 13.1907 14.3997C12.3994 14.571 11.8863 15.0555 11.6762 15.7941C11.466 16.509 11.6391 17.1648 12.1954 17.7025C12.5107 18.0097 12.8569 18.2992 13.1598 18.6183C13.2526 18.7128 13.3144 18.8901 13.302 19.0201C13.2649 19.3805 13.1846 19.7291 13.1165 20.0836C13.0485 20.444 12.9435 20.5267 12.5602 20.5267C11.2002 20.5267 9.84013 20.5267 8.47392 20.5267Z" fill="#FCFCFC"/>
<path d="M8.9004 9.20015C6.53272 9.20015 4.59778 7.35672 4.59778 5.0997C4.59778 2.81905 6.53272 0.951991 8.89422 0.9579C11.2928 0.963808 13.2216 2.80724 13.2216 5.09379C13.2216 7.36263 11.2928 9.20015 8.9004 9.20015Z" fill="#FCFCFC"/>
<path d="M14.6866 20.3731C14.7855 19.8118 14.8906 19.1973 15.0143 18.5828C15.0637 18.3347 15.0019 18.1515 14.8103 17.9802C14.3466 17.5607 13.8892 17.1353 13.4193 16.7217C13.2401 16.5621 13.1535 16.3849 13.2339 16.1663C13.3142 15.9477 13.5059 15.8827 13.7284 15.859C14.3714 15.7763 15.0081 15.6877 15.6448 15.605C15.9045 15.5754 16.0652 15.4454 16.1765 15.2268C16.4238 14.7305 16.6958 14.2401 16.9492 13.7438C17.0667 13.5193 17.2027 13.3125 17.4932 13.3125C17.79 13.3066 17.9321 13.5075 18.0496 13.732C18.3031 14.2283 18.5751 14.7187 18.8223 15.215C18.946 15.4691 19.1438 15.5813 19.4282 15.6168C20.0711 15.6936 20.7078 15.7822 21.3446 15.8649C21.5486 15.8945 21.7155 15.9772 21.7835 16.1781C21.8515 16.3849 21.7835 16.5503 21.6228 16.698C21.1591 17.1175 20.7016 17.5429 20.2318 17.9565C20.0278 18.1338 19.9475 18.3228 20.0093 18.5946C20.1329 19.1441 20.2195 19.6995 20.3184 20.249C20.3616 20.4794 20.3616 20.7039 20.1391 20.8576C19.9165 21.0112 19.7002 20.958 19.4776 20.8457C18.9336 20.574 18.3896 20.314 17.8456 20.0363C17.6169 19.9181 17.4129 19.9181 17.178 20.0304C16.6092 20.3199 16.0343 20.6035 15.4532 20.8753C15.0576 21.0821 14.6743 20.8457 14.6866 20.3731Z" fill="#FCFCFC"/>
</svg>
