<svg width="90" height="30" viewBox="0 0 90 30" fill="none" xmlns="http://www.w3.org/2000/svg">
<path d="M87.1967 18.223L89.6934 19.8575C88.883 21.0296 86.9448 23.0405 83.594 23.0405C79.4329 23.0405 76.334 19.879 76.334 15.8573C76.334 11.5775 79.4658 8.67407 83.2436 8.67407C87.0434 8.67407 88.9049 11.642 89.5072 13.2442L89.8357 14.0615L80.0461 18.0402C80.7908 19.4812 81.9515 20.2124 83.594 20.2124C85.2366 20.2124 86.3754 19.4166 87.1967 18.223ZM79.5205 15.6315L86.0579 12.9646C85.6965 12.0721 84.6234 11.4377 83.3422 11.4377C81.7106 11.4377 79.4439 12.8571 79.5205 15.6315Z" fill="#FF302F"/>
<path d="M71.6144 1.35107H74.7681V22.3846H71.6144V1.35107Z" fill="#20B15A"/>
<path d="M66.643 9.23326H69.6872V22.0082C69.6872 27.3096 66.5007 29.4925 62.7338 29.4925C59.1859 29.4925 57.0506 27.1483 56.2512 25.245L59.0435 24.1051C59.5472 25.2772 60.7627 26.6644 62.7338 26.6644C65.1538 26.6644 66.643 25.1912 66.643 22.4383V21.406H66.5335C65.8108 22.2663 64.4311 23.0405 62.679 23.0405C59.0216 23.0405 55.6708 19.9113 55.6708 15.8788C55.6708 11.8248 59.0216 8.66333 62.679 8.66333C64.4201 8.66333 65.8108 9.42682 66.5335 10.2656H66.643V9.23326ZM66.8621 15.8788C66.8621 13.341 65.1429 11.4915 62.9528 11.4915C60.7408 11.4915 58.8793 13.341 58.8793 15.8788C58.8793 18.3843 60.7408 20.2016 62.9528 20.2016C65.1429 20.2124 66.8621 18.3843 66.8621 15.8788Z" fill="#3686F7"/>
<path d="M38.3583 15.8251C38.3583 19.9651 35.0732 23.0083 31.0435 23.0083C27.0138 23.0083 23.7287 19.9543 23.7287 15.8251C23.7287 11.6635 27.0138 8.6311 31.0435 8.6311C35.0732 8.6311 38.3583 11.6635 38.3583 15.8251ZM35.1608 15.8251C35.1608 13.2443 33.2555 11.47 31.0435 11.47C28.8315 11.47 26.9262 13.2443 26.9262 15.8251C26.9262 18.3844 28.8315 20.1802 31.0435 20.1802C33.2555 20.1802 35.1608 18.3844 35.1608 15.8251Z" fill="#FF302F"/>
<path d="M54.3348 15.8573C54.3348 19.9973 51.0497 23.0405 47.02 23.0405C42.9903 23.0405 39.7052 19.9973 39.7052 15.8573C39.7052 11.6958 42.9903 8.67407 47.02 8.67407C51.0497 8.67407 54.3348 11.685 54.3348 15.8573ZM51.1264 15.8573C51.1264 13.2765 49.221 11.5022 47.0091 11.5022C44.7971 11.5022 42.8917 13.2765 42.8917 15.8573C42.8917 18.4166 44.7971 20.2124 47.0091 20.2124C49.232 20.2124 51.1264 18.4058 51.1264 15.8573Z" fill="#FFBA40"/>
<path d="M11.7053 19.8899C7.1171 19.8899 3.52539 16.2553 3.52539 11.7496C3.52539 7.244 7.1171 3.60937 11.7053 3.60937C14.18 3.60937 15.9868 4.56642 17.3228 5.7923L19.5238 3.63088C17.6622 1.87809 15.1765 0.544678 11.7053 0.544678C5.4198 0.544678 0.130798 5.57723 0.130798 11.7496C0.130798 17.922 5.4198 22.9546 11.7053 22.9546C15.0999 22.9546 17.6622 21.8578 19.6662 19.8146C21.7248 17.793 22.3599 14.9541 22.3599 12.6529C22.3599 11.9324 22.2723 11.1905 22.1738 10.642H11.7053V13.6315H19.1624C18.9434 15.5025 18.3412 16.7822 17.4542 17.6532C16.3811 18.7178 14.6838 19.8899 11.7053 19.8899Z" fill="#3686F7"/>
</svg>
