<svg width="25" height="28" viewBox="0 0 25 28" fill="none" xmlns="http://www.w3.org/2000/svg">
<path d="M16.5223 20.6891C15.3877 20.6891 14.291 20.6891 13.164 20.6891C13.164 19.9749 13.1602 19.2758 13.1715 18.5768C13.1715 18.4932 13.251 18.402 13.319 18.3337C13.6405 18.0031 13.9657 17.6764 14.291 17.3497C14.6314 17.0078 14.6805 16.7608 14.4536 16.5253C14.2191 16.2822 13.9657 16.3277 13.6102 16.6887C13.3077 16.9926 13.0127 17.3003 12.6875 17.6346C12.3206 17.2623 11.984 16.9204 11.6474 16.5823C11.4697 16.4037 11.273 16.3088 11.031 16.4379C10.7322 16.5937 10.6906 16.9508 10.9516 17.2243C11.3108 17.6004 11.689 17.9614 12.0483 18.3375C12.124 18.4172 12.1958 18.5388 12.1958 18.6414C12.2072 19.3138 12.2034 19.9863 12.2034 20.6815C11.0915 20.6815 9.98718 20.6815 8.84504 20.6815C8.84504 20.4535 8.82991 20.2142 8.84882 19.9787C8.86395 19.7849 8.77318 19.7013 8.61812 19.6101C6.53051 18.3716 5.21062 16.5633 4.6925 14.1813C3.83401 10.1998 6.11072 6.12724 9.93801 4.78997C14.5671 3.16777 19.4457 5.82332 20.6219 10.6025C21.4653 14.0331 19.9374 17.7106 16.9005 19.519C16.6169 19.6861 16.4656 19.8571 16.5185 20.1952C16.545 20.3396 16.5223 20.5029 16.5223 20.6891Z" fill="white"/>
<path d="M14.6011 25.5253C14.6011 25.8748 14.6049 26.175 14.6011 26.4751C14.5936 27.0525 14.1965 27.4514 13.614 27.4552C12.9825 27.459 12.3547 27.459 11.7231 27.4552C11.1672 27.4514 10.7663 27.0449 10.7587 26.4827C10.7549 26.175 10.7587 25.8634 10.7587 25.5253C10.4221 25.5253 10.1158 25.5291 9.80945 25.5253C9.24972 25.5177 8.84506 25.1188 8.8375 24.5603C8.83371 24.2526 8.8375 23.9411 8.8375 23.6144C11.3978 23.6144 13.9317 23.6144 16.4883 23.6144C16.4883 24.0095 16.5375 24.4236 16.477 24.8187C16.4127 25.248 16.0004 25.5177 15.5542 25.5253C15.2516 25.5253 14.9415 25.5253 14.6011 25.5253Z" fill="white"/>
<path d="M8.85638 22.6114C8.85638 22.2923 8.85638 21.996 8.85638 21.6844C11.4054 21.6844 13.9393 21.6844 16.4958 21.6844C16.4958 21.9808 16.4958 22.2847 16.4958 22.6114C13.9657 22.6114 11.4243 22.6114 8.85638 22.6114Z" fill="white"/>
<path d="M5.91409 6.24855C5.7439 6.14218 5.61154 6.08899 5.51699 5.99401C5.07829 5.56852 4.65093 5.13542 4.22358 4.69853C3.99288 4.46299 3.98532 4.18186 4.18576 3.97671C4.3862 3.77156 4.66984 3.77536 4.90432 4.0033C5.3468 4.43639 5.78172 4.88089 6.22042 5.32158C6.38305 5.48494 6.46247 5.69389 6.3301 5.89144C6.23555 6.0358 6.06537 6.12318 5.91409 6.24855Z" fill="white"/>
<path d="M19.4231 6.22627C19.2983 6.1237 19.1092 6.04392 19.0525 5.90335C18.9957 5.76279 18.9957 5.50825 19.0865 5.40947C19.5479 4.8966 20.0395 4.41032 20.5425 3.93543C20.7316 3.75308 20.9699 3.78727 21.1666 3.96582C21.3556 4.13678 21.3935 4.42171 21.2082 4.61547C20.7392 5.10934 20.2551 5.58803 19.771 6.06291C19.6992 6.13509 19.5781 6.15789 19.4231 6.22627Z" fill="white"/>
<path d="M4.47693 21.2362C4.34456 21.1223 4.16303 21.0311 4.11008 20.8905C4.05714 20.75 4.07226 20.503 4.16681 20.4004C4.61686 19.9028 5.09338 19.4317 5.57746 18.9682C5.77412 18.7782 6.03886 18.8048 6.22417 18.9834C6.42083 19.1733 6.44352 19.4469 6.24308 19.6558C5.78547 20.1345 5.31651 20.598 4.84377 21.0577C4.76435 21.1337 4.63577 21.1603 4.47693 21.2362Z" fill="white"/>
<path d="M21.3556 20.7271C21.2535 20.8525 21.1665 21.0425 21.0266 21.1032C20.8905 21.1602 20.6371 21.1488 20.5387 21.0577C20.0357 20.598 19.5592 20.1117 19.094 19.6178C18.9125 19.4241 18.9503 19.1885 19.1319 18.9948C19.3096 18.801 19.5781 18.7706 19.7786 18.9606C20.2627 19.4241 20.7316 19.9027 21.1968 20.3852C21.2686 20.4574 21.2876 20.5752 21.3556 20.7271Z" fill="white"/>
<path d="M13.164 1.9103C13.164 2.22182 13.1678 2.53335 13.164 2.84107C13.1564 3.1488 12.9711 3.34255 12.6913 3.34635C12.4114 3.35015 12.211 3.15639 12.2072 2.85247C12.1996 2.22182 12.2034 1.59118 12.2072 0.960531C12.211 0.652806 12.3963 0.459053 12.6799 0.455254C12.9749 0.451455 13.1602 0.649007 13.164 0.975727C13.1678 1.28725 13.164 1.59877 13.164 1.9103Z" fill="white"/>
<path d="M2.12453 12.9887C1.81441 12.9887 1.5043 12.9925 1.19796 12.9887C0.872717 12.9811 0.676057 12.7873 0.683621 12.491C0.691185 12.2099 0.884062 12.0275 1.19418 12.0275C1.81441 12.0237 2.43086 12.0237 3.0511 12.0275C3.37256 12.0313 3.56922 12.2289 3.56166 12.5214C3.55409 12.7987 3.36121 12.9811 3.0511 12.9887C2.74098 12.9925 2.43086 12.9887 2.12453 12.9887Z" fill="white"/>
<path d="M23.2277 12.9884C22.9175 12.9884 22.6074 12.9922 22.3011 12.9884C21.9985 12.9808 21.8057 12.787 21.8057 12.5059C21.8057 12.2248 21.9985 12.031 22.3049 12.0272C22.9327 12.0234 23.5605 12.0196 24.1883 12.0272C24.4908 12.031 24.6837 12.2248 24.6837 12.5097C24.6837 12.7908 24.4908 12.9808 24.1845 12.9884C23.8668 12.9922 23.5453 12.9884 23.2277 12.9884Z" fill="white"/>
</svg>
