<svg width="23" height="23" viewBox="0 0 23 23" fill="none" xmlns="http://www.w3.org/2000/svg">
<path d="M11.6925 22.9554C5.71742 22.971 0.735553 18.0243 0.716001 12.0492C0.696449 5.91768 5.60011 0.971001 11.7121 0.955359C17.7263 0.939718 22.6964 5.88639 22.716 11.9084C22.7356 18.0048 17.8162 22.9358 11.6925 22.9554ZM12.7053 8.64715C12.7053 7.77904 12.7053 6.91483 12.7053 6.04672C12.7053 5.93723 12.7053 5.82774 12.678 5.72216C12.5489 5.2138 12.0797 4.90488 11.5635 4.97918C11.0942 5.04565 10.7345 5.46407 10.7306 5.96069C10.7267 7.92763 10.7345 9.89457 10.7267 11.8615C10.7267 12.2134 10.844 12.495 11.0903 12.7374C11.5596 13.195 12.0171 13.6642 12.4824 14.1256C12.9908 14.634 13.4913 15.1463 14.0075 15.6468C14.4298 16.0574 15.0399 16.0457 15.4309 15.6429C15.818 15.2401 15.8024 14.6418 15.384 14.2195C14.5432 13.3709 13.6947 12.5341 12.8578 11.6816C12.7757 11.5995 12.7171 11.4548 12.7171 11.3414C12.6975 10.442 12.7053 9.54263 12.7053 8.64715Z" fill="#FCFCFC"/>
</svg>
