<svg width="31" height="26" viewBox="0 0 31 26" fill="none" xmlns="http://www.w3.org/2000/svg">
<path d="M4.78668 16.5639C5.97195 15.5592 7.17616 14.6244 8.55357 13.934C10.188 13.1147 11.8279 13.3081 13.4435 14.0065C13.8873 14.1972 14.3284 14.4229 14.7208 14.7023C15.5245 15.2744 16.4229 15.4598 17.3809 15.527C18.4092 15.5968 19.4591 15.5968 20.4414 15.9487C20.9069 16.1153 21.3399 16.3973 21.7566 16.6767C22.0543 16.8755 22.0299 17.0367 21.7512 17.2623C21.302 17.6276 20.7499 17.7324 20.2006 17.8211C18.5824 18.0843 16.9695 17.9849 15.3594 17.7432C14.7316 17.6491 14.1065 17.5309 13.4814 17.4235C13.089 17.3563 12.8563 17.4772 12.8103 17.77C12.7643 18.0736 12.932 18.2509 13.3271 18.3127C14.4745 18.4846 15.6192 18.6941 16.7747 18.8123C18.2035 18.96 19.635 18.901 21.0449 18.5786C21.8026 18.404 22.3736 17.95 22.9094 17.4181C24.2219 16.1099 25.5289 14.7936 26.8901 13.5391C27.5341 12.9454 28.2918 12.4726 29.0198 11.9703C29.2498 11.8118 29.5339 11.6829 29.8072 11.6479C30.0129 11.6238 30.297 11.7178 30.4378 11.8629C30.5325 11.9596 30.4973 12.2712 30.4107 12.4297C30.1915 12.838 29.9453 13.2382 29.6557 13.5982C27.8507 15.8198 26.0431 18.0413 24.2137 20.2414C23.2558 21.3938 22.0191 22.1218 20.5091 22.3099C19.8001 22.3985 19.0803 22.4093 18.3659 22.4522C16.4202 22.5677 14.4745 22.6833 12.5261 22.7907C11.8009 22.831 11.0756 22.8552 10.3477 22.8686C10.2584 22.8713 10.1177 22.7961 10.0825 22.7182C8.88912 20.2387 7.15181 18.224 4.87328 16.6606C4.85163 16.6418 4.83539 16.6149 4.78668 16.5639Z" fill="white"/>
<path d="M22.8746 0.71208C22.7475 1.45621 22.6121 2.27288 22.4714 3.08955C22.4254 3.36087 22.3767 3.6322 22.328 3.90621C22.2793 4.18829 22.3496 4.41663 22.5688 4.62617C23.3076 5.33269 24.0275 6.05534 24.7609 6.76723C24.9638 6.96334 25.1154 7.17019 25.0125 7.47107C24.9124 7.76389 24.6607 7.82299 24.3982 7.8606C23.3969 8.00566 22.3929 8.15073 21.3916 8.29042C21.1021 8.33072 20.9045 8.46235 20.7746 8.73368C20.3281 9.66855 19.8626 10.5954 19.4134 11.5275C19.2943 11.7747 19.1536 11.9708 18.8424 11.9654C18.542 11.9601 18.4148 11.7613 18.3039 11.5275C17.8601 10.6142 17.4 9.70616 16.967 8.78741C16.8182 8.4731 16.6044 8.32803 16.2661 8.28505C15.2729 8.15342 14.2797 8.00298 13.2866 7.85791C13.0214 7.8203 12.7859 7.73971 12.6966 7.44152C12.61 7.15676 12.7562 6.9714 12.9402 6.79141C13.6627 6.08489 14.3772 5.36493 15.1078 4.66915C15.3676 4.422 15.4353 4.16679 15.3731 3.82025C15.1836 2.79404 15.0267 1.75978 14.848 0.730885C14.8075 0.494482 14.8589 0.298374 15.0537 0.153309C15.2621 0.000183661 15.4759 0.0324205 15.6951 0.147936C16.6233 0.642234 17.557 1.12579 18.4798 1.62814C18.745 1.77052 18.975 1.77052 19.2348 1.62814C20.1684 1.1231 21.1048 0.626116 22.0465 0.134504C22.4877 -0.0992133 22.899 0.161368 22.8746 0.71208Z" fill="white"/>
<path d="M0.873655 18.4201C0.838474 17.171 2.08062 16.177 3.36877 16.8137C4.34842 17.2972 5.20358 17.9581 6.00191 18.6888C7.37666 19.9487 8.46455 21.4235 9.25747 23.1079C9.72023 24.0885 9.59845 24.623 8.7487 25.3027C8.55656 25.4585 8.33736 25.5821 8.15063 25.7433C7.95038 25.9152 7.75282 25.8937 7.55527 25.7675C7.35501 25.6385 7.14934 25.5096 6.98426 25.343C5.65552 24.0079 4.33759 22.662 3.01426 21.3188C2.47843 20.7761 1.94531 20.2281 1.40407 19.6908C1.04956 19.3389 0.868242 18.9198 0.873655 18.4201Z" fill="white"/>
</svg>
