<svg width="25" height="28" viewBox="0 0 25 28" fill="none" xmlns="http://www.w3.org/2000/svg">
<path d="M16.5223 20.6892C15.3877 20.6892 14.291 20.6892 13.164 20.6892C13.164 19.975 13.1602 19.276 13.1715 18.5769C13.1715 18.4933 13.251 18.4022 13.319 18.3338C13.6405 18.0033 13.9657 17.6765 14.291 17.3498C14.6314 17.0079 14.6805 16.761 14.4536 16.5254C14.2191 16.2823 13.9657 16.3279 13.6102 16.6888C13.3077 16.9927 13.0127 17.3004 12.6875 17.6348C12.3206 17.2624 11.984 16.9205 11.6474 16.5824C11.4697 16.4039 11.273 16.3089 11.031 16.438C10.7322 16.5938 10.6906 16.9509 10.9516 17.2245C11.3108 17.6006 11.689 17.9615 12.0483 18.3376C12.124 18.4174 12.1958 18.5389 12.1958 18.6415C12.2072 19.3139 12.2034 19.9864 12.2034 20.6816C11.0915 20.6816 9.98718 20.6816 8.84504 20.6816C8.84504 20.4537 8.82991 20.2143 8.84882 19.9788C8.86395 19.785 8.77318 19.7014 8.61812 19.6103C6.53051 18.3718 5.21062 16.5634 4.6925 14.1814C3.83401 10.2 6.11072 6.12736 9.93801 4.79009C14.5671 3.16789 19.4457 5.82344 20.6219 10.6027C21.4653 14.0332 19.9374 17.7107 16.9005 19.5191C16.6169 19.6863 16.4656 19.8572 16.5185 20.1953C16.545 20.3397 16.5223 20.503 16.5223 20.6892Z" fill="#FCFCFC"/>
<path d="M14.6011 25.5254C14.6011 25.8749 14.6049 26.1751 14.6011 26.4752C14.5936 27.0527 14.1965 27.4516 13.614 27.4554C12.9825 27.4592 12.3547 27.4592 11.7231 27.4554C11.1672 27.4516 10.7663 27.0451 10.7587 26.4828C10.7549 26.1751 10.7587 25.8636 10.7587 25.5254C10.4221 25.5254 10.1158 25.5292 9.80945 25.5254C9.24972 25.5178 8.84506 25.1189 8.8375 24.5605C8.83371 24.2527 8.8375 23.9412 8.8375 23.6145C11.3978 23.6145 13.9317 23.6145 16.4883 23.6145C16.4883 24.0096 16.5375 24.4237 16.477 24.8188C16.4127 25.2481 16.0004 25.5178 15.5542 25.5254C15.2516 25.5254 14.9415 25.5254 14.6011 25.5254Z" fill="#FCFCFC"/>
<path d="M8.85638 22.6115C8.85638 22.2924 8.85638 21.9961 8.85638 21.6846C11.4054 21.6846 13.9393 21.6846 16.4958 21.6846C16.4958 21.9809 16.4958 22.2848 16.4958 22.6115C13.9657 22.6115 11.4243 22.6115 8.85638 22.6115Z" fill="#FCFCFC"/>
<path d="M5.91409 6.24867C5.7439 6.1423 5.61154 6.08911 5.51699 5.99413C5.07829 5.56864 4.65093 5.13554 4.22358 4.69865C3.99288 4.46311 3.98532 4.18198 4.18576 3.97683C4.3862 3.77168 4.66984 3.77548 4.90432 4.00342C5.3468 4.43652 5.78172 4.88101 6.22042 5.3217C6.38305 5.48506 6.46247 5.69401 6.3301 5.89156C6.23555 6.03592 6.06537 6.1233 5.91409 6.24867Z" fill="#FCFCFC"/>
<path d="M19.4231 6.22633C19.2983 6.12376 19.1092 6.04398 19.0525 5.90341C18.9957 5.76285 18.9957 5.50831 19.0865 5.40953C19.5479 4.89666 20.0395 4.41038 20.5425 3.93549C20.7316 3.75314 20.9699 3.78733 21.1666 3.96589C21.3556 4.13684 21.3935 4.42177 21.2082 4.61553C20.7392 5.10941 20.2551 5.58809 19.771 6.06297C19.6992 6.13516 19.5781 6.15795 19.4231 6.22633Z" fill="#FCFCFC"/>
<path d="M4.47693 21.2362C4.34456 21.1223 4.16303 21.0311 4.11008 20.8905C4.05714 20.75 4.07226 20.503 4.16681 20.4004C4.61686 19.9028 5.09338 19.4317 5.57746 18.9682C5.77412 18.7782 6.03886 18.8048 6.22417 18.9834C6.42083 19.1733 6.44352 19.4469 6.24308 19.6558C5.78547 20.1345 5.31651 20.598 4.84377 21.0577C4.76435 21.1337 4.63577 21.1603 4.47693 21.2362Z" fill="#FCFCFC"/>
<path d="M21.3556 20.7272C21.2535 20.8526 21.1665 21.0425 21.0266 21.1033C20.8905 21.1603 20.6371 21.1489 20.5387 21.0577C20.0357 20.598 19.5592 20.1118 19.094 19.6179C18.9125 19.4241 18.9503 19.1886 19.1319 18.9948C19.3096 18.8011 19.5781 18.7707 19.7786 18.9606C20.2627 19.4241 20.7316 19.9028 21.1968 20.3853C21.2686 20.4575 21.2876 20.5752 21.3556 20.7272Z" fill="#FCFCFC"/>
<path d="M13.164 1.91036C13.164 2.22188 13.1678 2.53341 13.164 2.84113C13.1564 3.14886 12.9711 3.34261 12.6913 3.34641C12.4114 3.35021 12.211 3.15646 12.2072 2.85253C12.1996 2.22188 12.2034 1.59124 12.2072 0.960592C12.211 0.652867 12.3963 0.459114 12.6799 0.455315C12.9749 0.451516 13.1602 0.649068 13.164 0.975788C13.1678 1.28731 13.164 1.59884 13.164 1.91036Z" fill="#FCFCFC"/>
<path d="M2.12453 12.9888C1.81441 12.9888 1.5043 12.9926 1.19796 12.9888C0.872717 12.9812 0.676057 12.7874 0.683621 12.4911C0.691185 12.21 0.884062 12.0276 1.19418 12.0276C1.81441 12.0238 2.43086 12.0238 3.0511 12.0276C3.37256 12.0314 3.56922 12.229 3.56166 12.5215C3.55409 12.7988 3.36121 12.9812 3.0511 12.9888C2.74098 12.9926 2.43086 12.9888 2.12453 12.9888Z" fill="#FCFCFC"/>
<path d="M23.2277 12.9885C22.9175 12.9885 22.6074 12.9923 22.3011 12.9885C21.9985 12.9809 21.8057 12.7872 21.8057 12.506C21.8057 12.2249 21.9985 12.0311 22.3049 12.0273C22.9327 12.0235 23.5605 12.0197 24.1883 12.0273C24.4908 12.0311 24.6837 12.2249 24.6837 12.5098C24.6837 12.7909 24.4908 12.9809 24.1845 12.9885C23.8668 12.9923 23.5453 12.9885 23.2277 12.9885Z" fill="#FCFCFC"/>
</svg>
