<svg width="101" height="28" viewBox="0 0 101 28" fill="none" xmlns="http://www.w3.org/2000/svg">
<g clip-path="url(#clip0_1_2698)">
<path d="M67.2 0.5V20.1049C69.638 20.2175 72.0699 20.3535 74.4948 20.5139V24.6704C70.6614 24.417 66.8119 24.2235 62.9464 24.0916V0.5H67.2ZM101 0.502323L95.4614 13.2381L100.999 27.4107L100.992 27.4134C99.3795 27.1852 97.7644 26.9697 96.1446 26.7632L93.035 18.8087L89.8959 26.0248C88.4082 25.8618 86.9185 25.7077 85.4254 25.5632L90.8249 13.153L85.88 0.502323H90.4813L93.2499 7.58178L96.3285 0.502323H101ZM48.3485 23.8856L48.3483 0.502247H60.2218V4.69609H52.6018V10.1315H58.3673V14.288H52.6018V23.8846L48.3485 23.8856ZM32.466 4.69644L32.4659 0.502029H45.6217V4.69615H41.1704V23.9994C39.7507 24.0362 38.3325 24.0799 36.9172 24.1328V4.69644H32.466ZM17.9252 25.3412V0.502732H29.7394V4.69658H22.178V10.3775C23.9151 10.3554 26.3851 10.3304 27.9217 10.3341V14.4909C25.9982 14.4672 23.827 14.5171 22.178 14.5334V20.8263C24.6911 20.6302 27.2118 20.4587 29.7394 20.3139V24.4708C25.7834 24.6968 21.8452 24.9879 17.9252 25.3412ZM9.5814 15.7323L9.58112 0.502049H13.8346V25.733C12.2797 25.8917 10.7278 26.0605 9.1785 26.2387L4.25323 12.2048V26.8398C2.83268 27.0233 1.41503 27.2146 0 27.4144V0.502323H4.0422L9.5814 15.7323ZM78.0038 24.9211V24.9212V0.50235H82.2573V25.2695C80.8413 25.1445 79.424 25.0289 78.0038 24.9211Z" fill="#DB202C"/>
</g>
<defs>
<clipPath id="clip0_1_2698">
<rect width="101" height="27" fill="white" transform="translate(0 0.5)"/>
</clipPath>
</defs>
</svg>
