<svg width="44" height="36" viewBox="0 0 44 36" fill="none" xmlns="http://www.w3.org/2000/svg">
<path d="M37.9879 31.1431C37.1725 31.127 36.357 31.1351 35.5415 31.1351C33.6002 31.1431 31.6661 31.1511 29.7249 31.1591C27.1485 31.1591 24.5722 31.1591 21.9958 31.1591C20.6968 31.1511 19.3978 31.1351 18.106 31.1351C16.3019 31.1351 14.5049 31.1511 12.7008 31.1591C10.4347 31.1511 8.17591 31.1351 5.90988 31.1511C5.20986 31.1591 4.73356 31.7609 4.69748 32.5713C4.67583 32.9565 4.69026 33.3336 4.69026 33.7187C4.69026 34.9544 5.18099 35.5 6.30679 35.5C8.31302 35.5 10.312 35.5 12.3183 35.5C14.4039 35.492 16.4895 35.484 18.5751 35.476C21.7072 35.476 24.8392 35.476 27.9712 35.476C30.5115 35.476 33.059 35.476 35.5992 35.476C36.4003 35.484 37.1941 35.5161 37.9952 35.492C38.7529 35.4679 39.2725 34.8822 39.3086 34.0397C39.3302 33.5502 39.3302 33.0608 39.3086 32.5713C39.2653 31.7128 38.7601 31.1591 37.9879 31.1431Z" fill="url(#paint0_linear_525_958)"/>
<path d="M42.6429 5.71542C41.5243 5.04141 40.1675 5.34632 39.3881 6.44559C38.5943 7.47264 38.5438 8.83669 39.2583 9.94398C39.2438 10.1847 39.049 10.2489 38.9118 10.3692C38.0675 11.0994 37.2159 11.8216 36.3716 12.5517C35.3973 13.314 34.4447 14.1003 33.5282 14.9428C33.0447 15.336 32.554 15.7211 32.0777 16.1223C31.4282 16.668 31.4282 16.668 30.8653 16.0261C29.2271 14.1405 27.5817 12.2629 25.9435 10.3773C25.1208 9.40639 24.3053 8.42748 23.461 7.47264C23.1795 7.15168 23.0496 6.99121 23.5259 6.73445C24.0383 6.46163 24.4424 5.99625 24.6589 5.37842C25.4311 3.86993 24.9332 1.89607 23.5331 0.973326C22.1475 0.0586078 20.3578 0.523991 19.5135 2.01643C18.4959 3.63724 18.965 5.78763 20.5599 6.79864C20.7908 6.94307 20.9496 7.0554 20.7042 7.32821C19.6939 8.41143 18.7268 9.54279 17.7887 10.6982C16.7423 11.8216 15.7464 13.0011 14.7577 14.1886C14.1443 14.8867 13.5164 15.5687 12.9246 16.2908C12.6793 16.5877 12.5205 16.6198 12.2174 16.3631C9.85035 14.3491 7.46885 12.3592 5.08013 10.3692C4.82033 10.1526 4.73373 10.0082 4.92137 9.63908C5.51313 8.44352 5.26777 7.04738 4.36568 6.12463C3.49247 5.24201 2.18625 5.11363 1.19757 5.82775C0.172801 6.56594 -0.238548 7.88988 0.136718 9.18974C0.497551 10.4094 1.50067 11.2599 2.64812 11.1877C3.05947 11.1636 3.13885 11.3241 3.18937 11.6771C3.36978 12.8085 3.55742 13.9318 3.74505 15.0552C3.83887 15.7131 3.92547 16.3711 4.09867 17.005C4.22135 17.9919 4.38733 18.9708 4.5894 19.9417C5.00075 22.413 5.41932 24.8764 5.8018 27.3477C5.86675 27.7569 5.99665 27.8692 6.35748 27.8692C8.97713 27.8532 11.5968 27.8612 14.2164 27.8532C15.0463 27.8532 15.8763 27.8372 16.7062 27.8291C18.0773 27.8773 19.4485 27.8773 20.8197 27.8291C21.8661 27.8773 22.9053 27.8773 23.9517 27.8291C25.6476 27.8773 27.3435 27.8773 29.0395 27.8291C31.2911 27.8773 33.5354 27.8773 35.787 27.8291C36.451 27.8372 37.1221 27.8372 37.786 27.8612C38.0386 27.8692 38.1108 27.7489 38.1541 27.4921C38.3201 26.3848 38.5149 25.2856 38.6954 24.1863C38.9984 22.3729 39.2943 20.5595 39.5974 18.7461C39.8139 17.4784 40.0304 16.2186 40.2397 14.9509C40.4201 13.8997 40.5933 12.8406 40.7954 11.7975C40.8387 11.5728 40.7304 11.2278 41.0696 11.1395C42.2243 11.4043 43.4656 10.5377 43.848 9.18974C44.2738 7.84174 43.7614 6.39744 42.6429 5.71542Z" fill="url(#paint1_linear_525_958)"/>
<defs>
<linearGradient id="paint0_linear_525_958" x1="66.8379" y1="39.7624" x2="33.0688" y2="3.06403" gradientUnits="userSpaceOnUse">
<stop stop-color="#F31255"/>
<stop offset="1" stop-color="#FF9E2A"/>
</linearGradient>
<linearGradient id="paint1_linear_525_958" x1="78.9428" y1="54.5686" x2="-10.2742" y2="34.9122" gradientUnits="userSpaceOnUse">
<stop stop-color="#F31255"/>
<stop offset="1" stop-color="#FF9E2A"/>
</linearGradient>
</defs>
</svg>
