<svg width="26" height="26" viewBox="0 0 26 26" fill="none" xmlns="http://www.w3.org/2000/svg">
<path d="M0.110088 7.37769C1.58113 8.02818 2.97991 8.64891 4.37868 9.26964C6.38542 10.1582 8.39217 11.0553 10.3989 11.9396C10.7093 12.0757 11.0409 12.1522 11.3555 12.2798C11.4491 12.318 11.5681 12.4413 11.5681 12.5221C11.5766 16.8842 11.5766 21.2463 11.5724 25.6085C11.5724 25.6255 11.5553 25.6467 11.5341 25.6977C11.313 25.6127 11.0877 25.5362 10.8708 25.4427C8.09881 24.2054 5.31402 22.9895 2.5505 21.731C0.892379 20.9742 0.0165531 19.652 0.00804991 17.8153C-0.00470484 14.7159 -0.000453257 11.6123 0.00804991 8.50861C0.00804991 8.15147 0.0718236 7.79434 0.110088 7.37769Z" fill="#3E399B"/>
<path d="M13.6853 25.706C13.6853 25.553 13.6853 25.4467 13.6853 25.3362C13.6853 21.1143 13.6895 16.8925 13.6768 12.6707C13.6768 12.3986 13.7703 12.3221 14.0126 12.2285C15.2201 11.7481 16.4105 11.2294 17.6095 10.7235C17.7498 10.664 17.8858 10.6044 18.0856 10.5151C18.0856 10.7958 18.0856 11.0296 18.0856 11.2634C18.0856 11.8331 18.0814 12.4029 18.0856 12.9726C18.0899 13.606 18.5151 14.061 19.106 14.0695C19.697 14.078 20.1519 13.6528 20.1689 13.0151C20.1902 12.2158 20.1732 11.4165 20.1774 10.6129C20.1774 10.2728 20.0796 9.86041 20.2369 9.61807C20.3943 9.37573 20.8152 9.3077 21.1255 9.17165C22.4435 8.58493 23.7615 7.99821 25.1348 7.38599C25.1815 7.71761 25.2538 8.01522 25.2538 8.31708C25.2623 11.561 25.3006 14.8092 25.2411 18.0532C25.2113 19.7708 24.2887 21.0081 22.7326 21.7223C20.8152 22.6066 18.8807 23.4442 16.9547 24.303C16.0449 24.7069 15.1351 25.1108 14.2252 25.5105C14.0637 25.5828 13.8893 25.6338 13.6853 25.706Z" fill="#3E399B"/>
<path d="M7.7168 2.35216C7.96764 2.23737 8.18022 2.13533 8.39705 2.03755C9.22611 1.66766 10.0552 1.29777 10.8842 0.932134C12.0151 0.430448 13.1588 0.396435 14.2897 0.89387C17.1426 2.14809 19.9869 3.41506 22.8227 4.69904C23.2521 4.89461 23.6347 5.20072 24.0981 5.49408C23.9408 5.58762 23.8771 5.63438 23.8048 5.6684C22.338 6.31889 20.8712 6.97363 19.3959 7.61562C19.2641 7.67089 19.0685 7.6879 18.9452 7.63263C15.2974 5.93199 11.658 4.21435 8.01441 2.50097C7.92938 2.4627 7.84434 2.41594 7.7168 2.35216Z" fill="#3E399B"/>
<path d="M16.5725 8.88682C15.6159 9.31198 14.6933 9.74564 13.7537 10.1283C12.9587 10.4514 12.1424 10.4174 11.3601 10.073C8.0141 8.58921 4.67236 7.0969 1.33061 5.60885C1.31361 5.60035 1.2966 5.57909 1.21582 5.51106C1.5517 5.27297 1.84931 5.00087 2.19794 4.83081C3.12053 4.38014 4.06438 3.97199 5.00398 3.55959C5.09751 3.51707 5.24207 3.52983 5.33985 3.57659C9.05148 5.31124 12.7546 7.05439 16.462 8.79754C16.4918 8.81029 16.513 8.8358 16.5725 8.88682Z" fill="#3E399B"/>
</svg>
