<svg width="25" height="25" viewBox="0 0 25 25" fill="none" xmlns="http://www.w3.org/2000/svg">
<path d="M12.314 24.9553C5.70676 24.9553 0.316284 19.5638 0.316284 12.9599C0.316284 6.34225 5.71594 0.946149 12.3324 0.955334C18.9396 0.964519 24.3209 6.35602 24.3163 12.9645C24.3117 19.573 18.9212 24.9599 12.314 24.9553ZM13.393 7.11377C13.393 6.8566 13.3976 6.62698 13.393 6.39736C13.3838 5.87382 12.9935 5.41917 12.4885 5.34569C11.9421 5.26762 11.4324 5.57531 11.2901 6.10344C11.2304 6.31928 11.2304 6.55809 11.2442 6.78312C11.2533 6.98978 11.1937 7.07244 10.987 7.13214C9.48101 7.5822 8.46628 8.95993 8.51678 10.4662C8.56729 12.0552 9.61875 13.3503 11.1799 13.7315C11.7722 13.8738 12.3783 13.9794 12.966 14.1356C13.494 14.278 13.8292 14.6499 13.9348 15.1827C14.0358 15.7016 13.8384 16.1379 13.4251 16.4639C12.6584 17.0701 11.3314 16.7992 10.8631 15.9404C10.785 15.798 10.7437 15.6419 10.684 15.4904C10.4682 14.9576 9.88047 14.6867 9.33867 14.8658C8.80146 15.0449 8.48923 15.5868 8.63157 16.1379C8.91625 17.2538 9.5912 18.0897 10.6381 18.5351C11.1431 18.751 11.2855 18.999 11.2533 19.5087C11.212 20.1057 11.7217 20.5696 12.3186 20.5696C12.9155 20.5696 13.3838 20.1103 13.3976 19.5087C13.4022 19.2883 13.3976 19.0679 13.3976 18.8428C13.4665 18.8153 13.5216 18.7923 13.5767 18.7785C15.1378 18.2871 16.1709 16.8956 16.1204 15.348C16.0653 13.6947 14.9587 12.3583 13.3287 11.9817C12.7731 11.8532 12.213 11.7521 11.662 11.6189C11.1386 11.4904 10.7345 11.0357 10.6886 10.5581C10.6335 10.0437 10.8906 9.56153 11.3589 9.30895C12.0569 8.92778 13.1267 9.12066 13.618 9.74064C13.7649 9.92893 13.8567 10.1677 13.9486 10.3928C14.169 10.9301 14.7337 11.2148 15.2801 11.0495C15.8219 10.8842 16.1433 10.3239 16.0102 9.7636C15.8587 9.12985 15.5373 8.58794 15.0827 8.11951C14.6098 7.63731 14.045 7.32043 13.393 7.11377Z" fill="#FCFCFC"/>
</svg>
