<svg width="77" height="30" viewBox="0 0 77 30" fill="none" xmlns="http://www.w3.org/2000/svg">
<mask id="mask0_151_12155" style="mask-type:luminance" maskUnits="userSpaceOnUse" x="0" y="0" width="25" height="30">
<path d="M24.2383 0.548828H0.326904V29.7747H24.2383V0.548828Z" fill="white"/>
</mask>
<g mask="url(#mask0_151_12155)">
<path d="M23.1525 0.546875V8.62396H9.63923C9.47612 8.62214 9.31424 8.65261 9.16293 8.71371C9.01165 8.77477 8.87394 8.8652 8.75778 8.97975C8.6633 9.0733 8.58619 9.18287 8.53003 9.30343C8.6557 7.25739 9.43099 5.30486 10.7431 3.72994C12.0553 2.15502 13.8357 1.0399 15.8254 0.546875H23.1525Z" fill="url(#paint0_linear_151_12155)"/>
<path d="M16.0715 20.9177C15.9601 22.974 15.1929 24.9405 13.8823 26.5291C12.5718 28.1176 10.7869 29.2446 8.78928 29.7448H1.79858V21.6694H14.9239C15.0909 21.6716 15.2567 21.64 15.4111 21.5765C15.5588 21.5162 15.6929 21.4269 15.8053 21.3137C15.9184 21.1998 16.0088 21.0654 16.0715 20.9177Z" fill="url(#paint1_linear_151_12155)"/>
<path d="M24.2384 20.4329C24.2442 21.6786 23.9954 22.9123 23.5074 24.0584C23.4081 24.2891 23.299 24.5164 23.1807 24.7379C23.1773 24.7472 23.174 24.7505 23.174 24.7569C23.1729 24.7617 23.1707 24.7661 23.1676 24.77C22.1636 26.668 20.5374 28.1629 18.5618 29.004C17.4132 29.4992 16.1744 29.7512 14.9236 29.7443H8.79198L8.86254 29.7253C10.8436 29.2125 12.6099 28.0825 13.906 26.499C15.202 24.9154 15.9604 22.9604 16.0713 20.9171V20.9138C16.1885 20.6088 16.1907 20.2716 16.0776 19.9651C16.0747 19.9588 16.0713 19.9491 16.0679 19.9427C16.0069 19.7954 15.9176 19.6614 15.8051 19.5485C15.6898 19.433 15.5521 19.3422 15.4006 19.2815C15.2491 19.2209 15.0868 19.1917 14.9236 19.1957H9.63835C9.37552 19.1957 9.1127 19.1864 8.85283 19.1606C8.84353 19.1606 8.83381 19.1572 8.82113 19.1572C7.85028 19.0804 6.89903 18.8422 6.00651 18.4524C3.78573 17.4964 2.01738 15.7234 1.0673 13.5001C0.942191 13.2136 0.833012 12.9205 0.74025 12.622C0.462922 11.7284 0.323567 10.7976 0.326995 9.86191C0.321425 8.6134 0.57344 7.37718 1.0673 6.2305C2.0229 4.01399 3.79001 2.24689 6.00651 1.29129C6.65344 1.00804 7.33282 0.805662 8.02927 0.688728C8.05505 0.681967 8.07406 0.679007 8.08674 0.675626C8.09312 0.674005 8.09963 0.673013 8.10618 0.672667C8.61248 0.587998 9.12499 0.545595 9.63835 0.5459H15.8245C13.8348 1.03893 12.0543 2.15404 10.7422 3.72896C9.43012 5.30388 8.65482 7.25641 8.52915 9.30245C8.51563 9.3262 8.50388 9.35092 8.49408 9.3764C8.43078 9.52974 8.39917 9.69433 8.40112 9.86022C8.3993 10.0339 8.43188 10.2062 8.49704 10.3673C8.50384 10.3852 8.51246 10.4023 8.52281 10.4184C8.57804 10.5468 8.65752 10.6633 8.75691 10.7615C8.8726 10.8767 9.01023 10.9675 9.16163 11.0286C9.31303 11.0898 9.47512 11.1199 9.63835 11.1173H14.9236C16.1718 11.1107 17.4082 11.3583 18.5576 11.8449C20.7923 12.7844 22.57 14.5621 23.5095 16.7968C23.6336 17.0865 23.7418 17.3827 23.8336 17.6842C24.105 18.5751 24.2415 19.5016 24.2384 20.4329Z" fill="url(#paint2_linear_151_12155)"/>
<g style="mix-blend-mode:multiply" opacity="0.16">
<path d="M16.0726 20.9172C15.9611 22.9735 15.1939 24.9401 13.8834 26.5286C12.5729 28.1171 10.788 29.2441 8.79036 29.7444H6.84155C8.47691 28.9748 9.92061 27.851 11.068 26.4545C12.2154 25.058 13.0378 23.4238 13.4756 21.6702H14.9241C15.0911 21.6724 15.2569 21.6408 15.4113 21.5773C15.5591 21.517 15.6931 21.4276 15.8056 21.3144C15.9191 21.2003 16.0097 21.0654 16.0726 20.9172Z" fill="black"/>
</g>
<g style="mix-blend-mode:multiply" opacity="0.16">
<path d="M17.5768 0.546875C15.7721 1.88975 12.1086 4.98917 11.1853 8.62396H9.6341C9.471 8.62214 9.30912 8.65261 9.1578 8.71371C9.00653 8.77477 8.86882 8.8652 8.75266 8.97975C8.65818 9.0733 8.58106 9.18287 8.5249 9.30343C8.65057 7.25739 9.42587 5.30486 10.738 3.72994C12.0501 2.15502 13.8306 1.0399 15.8203 0.546875H17.5768Z" fill="black"/>
</g>
<g style="mix-blend-mode:multiply" opacity="0.25">
<path d="M23.153 2.9646V8.6268H11.8674C12.8063 8.53384 13.7486 8.47004 14.688 8.42482C15.6273 8.37961 16.5696 8.34031 17.5085 8.32552C18.4508 8.29679 19.3901 8.30017 20.3324 8.29045C21.1775 8.30017 22.015 8.30017 22.8584 8.31919C22.8677 7.95072 22.8745 7.58183 22.8901 7.21041C22.9062 6.73884 22.9222 6.26769 22.9514 5.79655C22.9979 4.85257 23.06 3.90689 23.153 2.9646Z" fill="black"/>
</g>
<g style="mix-blend-mode:screen" opacity="0.7">
<path d="M24.2399 20.4333C24.2457 21.679 23.9969 22.9127 23.5089 24.0588C23.4096 24.2896 23.3005 24.5169 23.1822 24.7383C23.2143 24.6517 23.32 24.3757 23.478 23.9527C23.7228 23.2335 23.883 22.4882 23.9555 21.7319C24.0011 21.2309 24.0109 20.7273 23.9847 20.225C23.9525 19.6695 23.8753 19.1175 23.7539 18.5745C23.6911 18.2937 23.6129 18.0165 23.5199 17.7442C23.4108 17.4624 23.3018 17.1767 23.1928 16.8915C22.9482 16.3306 22.6474 15.7959 22.2953 15.2955C21.9522 14.7885 21.5555 14.3198 21.1121 13.8977C20.685 13.488 20.2216 13.118 19.7274 12.7923C19.2587 12.4879 18.7668 12.221 18.2561 11.9941C17.7961 11.7962 17.3214 11.6343 16.8363 11.5098C16.0979 11.3268 15.343 11.2183 14.5829 11.1862C14.0251 11.144 13.7078 11.119 13.7078 11.119H14.9226C16.1707 11.1124 17.4072 11.3599 18.5566 11.8467C20.7913 12.7861 22.569 14.5638 23.5084 16.7985C23.6326 17.0882 23.7408 17.3844 23.8325 17.6859C24.1047 18.5762 24.242 19.5023 24.2399 20.4333Z" fill="white"/>
</g>
<g style="mix-blend-mode:multiply" opacity="0.25">
<path d="M7.77816 29.746H1.79736V23.6401C1.87089 24.1497 1.91567 24.6543 1.96384 25.166C2.00229 25.6756 2.03779 26.1852 2.06018 26.6914C2.0923 27.201 2.09864 27.711 2.11766 28.2206L2.13076 29.4126C2.51824 29.419 2.90614 29.419 3.29404 29.4287C3.79096 29.4481 4.28789 29.4545 4.78776 29.4866C5.78456 29.5347 6.78136 29.6083 7.77816 29.746Z" fill="black"/>
</g>
<g style="mix-blend-mode:screen" opacity="0.7">
<path d="M8.82114 19.1572C7.85028 19.0804 6.89903 18.8421 6.00651 18.4524C3.78573 17.4964 2.01738 15.7234 1.0673 13.5001C0.942191 13.2136 0.833012 12.9205 0.74025 12.622C0.462922 11.7284 0.323567 10.7976 0.326995 9.86191C0.321425 8.6134 0.57344 7.37718 1.0673 6.2305C2.0229 4.01399 3.79001 2.24688 6.00651 1.29128C6.65344 1.00803 7.33282 0.805654 8.02927 0.688721C7.67991 0.772735 7.33531 0.87542 6.99698 0.996337C4.70172 1.81611 2.8027 3.47578 1.68296 5.64062C0.942466 7.06217 0.593897 8.65527 0.673065 10.2562C0.697897 11.0606 0.837178 11.8573 1.08673 12.6224C1.16026 12.8177 1.23083 13.0133 1.3014 13.2056L1.35253 13.3497L1.36562 13.3852C1.36857 13.3912 1.37071 13.3976 1.37196 13.4042L1.40407 13.4747L1.52577 13.7473C1.68763 14.1001 1.87285 14.4417 2.08016 14.7699C2.47318 15.3946 2.93681 15.9721 3.4619 16.4909C3.9385 16.9553 4.46026 17.3708 5.01943 17.7315C5.49679 18.0344 5.99739 18.2991 6.51654 18.523C6.92164 18.6952 7.33954 18.8357 7.76644 18.943C8.11416 19.0321 8.46619 19.1036 8.82114 19.1572Z" fill="white"/>
</g>
<g style="mix-blend-mode:screen" opacity="0.7">
<path d="M15.8265 0.546875C13.8369 1.0399 12.0564 2.15502 10.7443 3.72994C9.43213 5.30486 8.65683 7.25739 8.53117 9.30343C8.51764 9.32717 8.5059 9.35189 8.49609 9.37737L8.52187 9.29709C8.51215 9.04356 8.51215 8.78749 8.51215 8.531C8.53117 8.27493 8.5599 8.01845 8.58567 7.75857C8.62793 7.50504 8.68497 7.25151 8.73315 6.99798C8.79737 6.74445 8.884 6.50106 8.95752 6.24795C9.04203 6.00118 9.14682 5.76371 9.24908 5.52032C9.3581 5.28326 9.48656 5.05551 9.60191 4.82141C9.73628 4.59408 9.88376 4.37942 10.0245 4.15505C10.1783 3.94377 10.3384 3.73503 10.499 3.52967C10.6718 3.33107 10.8548 3.14219 11.031 2.9495C11.2232 2.77034 11.4113 2.59076 11.6111 2.41751L12.2361 1.94003C12.4541 1.79594 12.6751 1.66114 12.8995 1.52339C13.1336 1.40803 13.3614 1.28296 13.595 1.17056L14.3197 0.888716C14.5732 0.814769 14.8196 0.741245 15.0697 0.677439C15.3199 0.626733 15.5734 0.585327 15.8265 0.546875Z" fill="white"/>
</g>
<g style="mix-blend-mode:screen" opacity="0.7">
<path d="M16.1279 20.9149C16.1308 21.1777 16.1308 21.4342 16.1245 21.6936C16.1084 21.9535 16.0763 22.21 16.0476 22.4695C16.0028 22.7258 15.9515 22.9823 15.8938 23.2389C15.8295 23.4924 15.7463 23.7422 15.6724 23.9919C15.5878 24.2421 15.4771 24.4791 15.3766 24.7229C15.268 24.9634 15.1429 25.1941 15.0208 25.4282C14.8894 25.6555 14.7423 25.8735 14.6012 26.0979C14.4474 26.3126 14.2868 26.5205 14.1267 26.7292C13.9538 26.9282 13.7709 27.1205 13.5947 27.3157C13.4024 27.4987 13.2144 27.6783 13.0145 27.8545L12.3891 28.3353C12.1711 28.4795 11.95 28.6204 11.7257 28.7579L11.0302 29.12L10.3026 29.4116L9.55549 29.6296C9.36323 29.668 9.17519 29.7065 8.98504 29.7386L9.0273 29.745L8.80588 29.7707C8.80292 29.7741 8.79616 29.7741 8.7932 29.7741L8.78982 29.745L8.78687 29.7162L8.86039 29.7259C10.8414 29.2132 12.6078 28.0832 13.9038 26.4996C15.1999 24.9161 15.9582 22.9611 16.0691 20.9178V20.9145C16.1313 20.7619 16.1618 20.5983 16.1587 20.4336C16.182 20.5944 16.1714 20.7583 16.1279 20.9149Z" fill="white"/>
</g>
</g>
<path d="M36.8499 23.4722C35.8551 23.4722 34.9445 23.3497 34.118 23.1048C33.3069 22.86 32.5799 22.5003 31.9371 22.0259C31.3096 21.5514 30.7433 20.9775 30.2383 20.3041L32.3962 17.8477C33.1462 18.8884 33.8884 19.6001 34.6231 19.9827C35.373 20.35 36.1841 20.5337 37.0565 20.5337C37.5309 20.5337 37.9518 20.4648 38.3191 20.327C38.7017 20.1893 39.0002 20.0057 39.2144 19.7761C39.4287 19.5312 39.5358 19.2404 39.5358 18.9037C39.5358 18.6588 39.4823 18.4369 39.3751 18.238C39.268 18.0237 39.115 17.84 38.916 17.687C38.717 17.5186 38.4798 17.3733 38.2043 17.2508C37.9289 17.1131 37.6228 16.9983 37.2861 16.9065C36.9494 16.7993 36.5821 16.7152 36.1841 16.6539C35.3271 16.455 34.5771 16.2178 33.9344 15.9423C33.2916 15.6515 32.7559 15.2995 32.3274 14.8863C31.8988 14.4577 31.5774 13.9756 31.3632 13.44C31.1642 12.9043 31.0647 12.2998 31.0647 11.6264C31.0647 10.9377 31.2178 10.3025 31.5239 9.72094C31.83 9.12406 32.2508 8.61135 32.7865 8.18282C33.3375 7.75429 33.965 7.42524 34.669 7.19567C35.3883 6.9661 36.1459 6.85132 36.9417 6.85132C37.9212 6.85132 38.7783 6.95845 39.5129 7.17272C40.2475 7.38698 40.8827 7.70838 41.4183 8.13691C41.9693 8.55013 42.4284 9.05519 42.7957 9.65207L40.6148 11.7641C40.2934 11.3356 39.9414 10.9759 39.5588 10.6851C39.1915 10.3943 38.7859 10.1801 38.3421 10.0423C37.9136 9.88929 37.4697 9.81276 37.0106 9.81276C36.5055 9.81276 36.0693 9.88164 35.702 10.0194C35.3347 10.1418 35.0439 10.3331 34.8297 10.5933C34.6307 10.8382 34.5312 11.129 34.5312 11.4657C34.5312 11.7411 34.6001 11.986 34.7378 12.2003C34.8756 12.4146 35.0745 12.6059 35.3347 12.7742C35.5949 12.9273 35.9086 13.065 36.276 13.1874C36.6433 13.3099 37.0488 13.417 37.4927 13.5088C38.3344 13.6772 39.092 13.8991 39.7654 14.1746C40.4388 14.4501 41.0127 14.7868 41.4872 15.1847C41.9769 15.5673 42.3519 16.0264 42.6121 16.5621C42.8723 17.0825 43.0023 17.6717 43.0023 18.3298C43.0023 19.4164 42.7422 20.3424 42.2218 21.1076C41.7015 21.8728 40.9821 22.462 40.0639 22.8753C39.1456 23.2732 38.0743 23.4722 36.8499 23.4722Z" fill="#121127"/>
<path d="M45.6621 23.2426V11.0984H48.8072L48.922 15.001L48.371 14.1975C48.5547 13.5701 48.8531 13.0038 49.2664 12.4987C49.6796 11.9784 50.1617 11.5728 50.7127 11.282C51.2789 10.9912 51.8682 10.8458 52.4803 10.8458C52.7405 10.8458 52.993 10.8688 53.2379 10.9147C53.4828 10.9606 53.6894 11.0142 53.8578 11.0754L52.9854 14.6567C52.817 14.5649 52.5951 14.4883 52.3196 14.4271C52.0595 14.3506 51.7916 14.3123 51.5161 14.3123C51.1488 14.3123 50.8045 14.3812 50.4831 14.5189C50.177 14.6414 49.9092 14.825 49.6796 15.0699C49.45 15.2995 49.2664 15.575 49.1286 15.8964C49.0062 16.2178 48.945 16.5698 48.945 16.9524V23.2426H45.6621Z" fill="#121127"/>
<path d="M60.86 23.4722C59.6203 23.4722 58.5107 23.2043 57.5312 22.6687C56.567 22.1177 55.8018 21.3678 55.2355 20.4189C54.6846 19.47 54.4091 18.3834 54.4091 17.159C54.4091 15.9346 54.6846 14.848 55.2355 13.8991C55.8018 12.9502 56.567 12.2079 57.5312 11.6723C58.5107 11.1213 59.6203 10.8458 60.86 10.8458C62.0844 10.8458 63.1786 11.1213 64.1428 11.6723C65.1223 12.2079 65.8876 12.9502 66.4385 13.8991C66.9895 14.848 67.265 15.9346 67.265 17.159C67.265 18.3834 66.9895 19.47 66.4385 20.4189C65.8876 21.3678 65.1223 22.1177 64.1428 22.6687C63.1786 23.2043 62.0844 23.4722 60.86 23.4722ZM60.86 20.6255C61.4569 20.6255 61.9925 20.4801 62.467 20.1893C62.9414 19.8832 63.3087 19.47 63.5689 18.9496C63.8444 18.414 63.9745 17.8171 63.9592 17.159C63.9745 16.4856 63.8444 15.8887 63.5689 15.3683C63.3087 14.8327 62.9414 14.4195 62.467 14.1287C61.9925 13.8226 61.4569 13.6695 60.86 13.6695C60.2478 13.6695 59.7045 13.8226 59.23 14.1287C58.7556 14.4348 58.3806 14.848 58.1051 15.3683C57.8297 15.8887 57.6996 16.4856 57.7149 17.159C57.6996 17.8171 57.8297 18.414 58.1051 18.9496C58.3806 19.47 58.7556 19.8832 59.23 20.1893C59.7045 20.4801 60.2478 20.6255 60.86 20.6255Z" fill="#121127"/>
<path d="M70.9108 23.2426V8.02212H74.1707V23.2426H70.9108ZM68.6381 14.0139V11.0984H76.673V14.0139H68.6381Z" fill="#121127"/>
<defs>
<linearGradient id="paint0_linear_151_12155" x1="23.1525" y1="4.92515" x2="9.12955" y2="4.92515" gradientUnits="userSpaceOnUse">
<stop stop-color="#EE0979"/>
<stop offset="0.322" stop-color="#F32555"/>
<stop offset="1" stop-color="#FF6A00"/>
</linearGradient>
<linearGradient id="paint1_linear_151_12155" x1="1.24194" y1="25.3313" x2="14.7156" y2="25.3313" gradientUnits="userSpaceOnUse">
<stop stop-color="#EE0979"/>
<stop offset="0.322" stop-color="#F32555"/>
<stop offset="1" stop-color="#FF6A00"/>
</linearGradient>
<linearGradient id="paint2_linear_151_12155" x1="12.2827" y1="0.31231" x2="12.2827" y2="30.5327" gradientUnits="userSpaceOnUse">
<stop stop-color="#FCC400"/>
<stop offset="0.162" stop-color="#FBC000"/>
<stop offset="0.307" stop-color="#FBB500"/>
<stop offset="0.446" stop-color="#FBA300"/>
<stop offset="0.581" stop-color="#FA8900"/>
<stop offset="0.712" stop-color="#FA6800"/>
<stop offset="0.842" stop-color="#F93F00"/>
<stop offset="0.967" stop-color="#F81000"/>
<stop offset="1" stop-color="#F80300"/>
</linearGradient>
</defs>
</svg>
