<svg width="23" height="38" viewBox="0 0 23 38" fill="none" xmlns="http://www.w3.org/2000/svg">
<path d="M14.0735 2.53159C14.3816 2.91794 14.6897 3.30429 14.9938 3.69455C17.2413 6.59414 18.6514 9.82155 18.912 13.5016C19.1135 16.3076 18.8488 19.0589 17.9799 21.7477C17.9641 21.7985 17.9443 21.8453 17.9325 21.8726C13.3823 21.7985 8.84782 21.7243 4.29364 21.6502C3.89866 20.3623 3.64982 19.0198 3.53527 17.6501C3.32988 15.1836 3.48787 12.7446 4.15145 10.3523C4.66888 8.49078 5.5339 6.78537 6.61616 5.18532C7.68657 3.60479 8.95842 2.20378 10.3843 0.935448C10.9412 0.439825 11.5495 0.346164 12.1223 0.658368C12.2131 0.709101 12.3039 0.763736 12.3908 0.814469C12.9517 1.38424 13.5126 1.95792 14.0735 2.53159ZM14.109 9.03323C12.5844 7.48392 10.0881 7.4527 8.52788 8.95908C6.95979 10.4733 6.93214 12.9124 8.46074 14.4695C9.97748 16.0149 12.4619 16.0383 14.0379 14.528C15.5902 13.0411 15.6218 10.5708 14.109 9.03323Z" fill="#3E399B"/>
<path d="M20.4729 28.374C20.3188 28.4248 20.1648 28.4872 20.0068 28.5262C19.6316 28.616 19.2603 28.5692 18.9482 28.3506C18.3281 27.9175 17.7277 27.453 17.0918 26.9847C17.9134 25.8101 18.5769 24.5769 19.0904 23.2695C19.6079 21.9583 19.9712 20.6041 20.2161 19.2265C20.2477 19.2226 20.2714 19.2148 20.2754 19.2226C20.8047 19.8587 21.3576 20.4753 21.8553 21.1348C22.2069 21.5992 22.2898 22.1534 22.1634 22.7232C21.8158 24.2998 21.4643 25.8725 21.1048 27.4452C21.0653 27.617 20.9824 27.7809 20.9232 27.9487C20.777 28.0853 20.6269 28.2297 20.4729 28.374Z" fill="#3E399B"/>
<path d="M11.2735 37.1743C10.6968 37.3265 10.2939 37.1821 10.1399 36.7489C10.0964 36.6318 10.0806 36.4952 10.0846 36.3664C10.1162 34.1147 10.1557 31.859 10.1912 29.6072C10.1991 29.0921 10.5428 28.7409 11.0088 28.7487C11.4631 28.7604 11.7909 29.1194 11.787 29.6189C11.7514 31.8824 11.7159 34.142 11.6724 36.4055C11.6685 36.5655 11.6132 36.7216 11.5776 36.8816C11.4749 36.983 11.3722 37.0767 11.2735 37.1743Z" fill="#3E399B"/>
<path d="M14.7177 33.8808C14.6545 33.9003 14.5874 33.9198 14.5242 33.9393C14.0146 34.0993 13.4854 33.7559 13.4854 33.2291C13.4893 31.9959 13.513 30.7666 13.5446 29.5334C13.5564 29.1353 13.9119 28.8192 14.303 28.8075C14.7059 28.7958 15.0495 29.0729 15.1127 29.4748C15.1285 29.5763 15.1285 29.6817 15.1245 29.787C15.1087 30.8173 15.1008 31.8515 15.0692 32.8817C15.0613 33.1432 14.9863 33.4047 14.9428 33.6623C14.8717 33.7364 14.7928 33.8066 14.7177 33.8808Z" fill="#3E399B"/>
<path d="M17.3405 23.5193C16.9218 24.2413 16.511 24.9672 16.0765 25.6853C15.9146 25.9506 15.725 26.2004 15.5196 26.4384C15.2589 26.7389 14.9074 26.8677 14.5124 26.8638C12.1938 26.8287 9.87525 26.7936 7.55669 26.7506C7.04321 26.7428 6.63637 26.5126 6.38753 26.0716C5.89775 25.213 5.43562 24.3428 4.96164 23.4764C4.93004 23.4179 4.91029 23.3515 4.89844 23.3164C9.01418 23.3827 13.1378 23.4491 17.3405 23.5193Z" fill="#3E399B"/>
<path d="M2.0899 18.8638C2.49673 21.7243 3.3815 24.3625 4.96934 26.7781C4.49536 27.1099 4.04113 27.4299 3.58689 27.7499C3.45655 27.8396 3.3262 27.9255 3.19586 28.0152C2.33084 28.6006 1.16958 28.1791 0.960242 27.1684C0.624504 25.5488 0.328265 23.9176 0.0320262 22.2863C-0.0864693 21.6307 0.130773 21.0531 0.569206 20.5575C1.05504 20.0072 1.55667 19.457 2.0899 18.8638Z" fill="#3E399B"/>
<path d="M7.00732 28.9907C7.3549 28.6902 7.64324 28.6278 7.95133 28.7644C8.26337 28.9048 8.43716 29.1546 8.43321 29.5019C8.42136 30.3605 8.40556 31.2191 8.39371 32.0776C8.38976 32.4054 8.38581 32.7372 8.37791 33.065C8.36211 33.545 8.01453 33.8806 7.56424 33.8689C7.11791 33.8572 6.78612 33.5216 6.79007 33.0533C6.80192 31.8669 6.81772 30.6766 6.85327 29.4902C6.86117 29.2912 6.97572 29.0922 7.00732 28.9907Z" fill="#3E399B"/>
<path d="M12.9289 13.4311C11.9849 14.3404 10.4919 14.3169 9.57551 13.3803C8.66309 12.4476 8.68284 10.9607 9.6229 10.0593C10.559 9.16168 12.0797 9.18899 12.9882 10.11C13.8966 11.0388 13.8729 12.5257 12.9289 13.4311Z" fill="#3E399B"/>
</svg>
