<svg width="29" height="30" viewBox="0 0 29 30" fill="none" xmlns="http://www.w3.org/2000/svg">
<path d="M14.2811 0.872101C22.1051 0.888311 28.5108 7.31559 28.5 15.1396C28.4892 23.0015 22.0592 29.4018 14.2 29.372C6.376 29.3396 -0.0215588 22.9015 5.46031e-05 15.0802C0.021668 7.25615 6.45705 0.855891 14.2811 0.872101ZM18.6983 11.4437C18.574 9.95512 17.723 8.61509 16.048 7.85052C15.74 7.71003 15.5968 7.56144 15.5455 7.22373C15.4374 6.51319 14.9268 6.11334 14.2271 6.12145C13.557 6.12955 13.0491 6.5267 12.96 7.21563C12.9113 7.59386 12.7249 7.72624 12.4088 7.86403C10.7176 8.61239 9.57478 10.4819 9.72067 12.2164C9.89087 14.267 11.212 15.8637 13.1572 16.3284C13.5814 16.431 14.0271 16.4337 14.4621 16.4959C15.4347 16.6364 16.1182 17.6333 15.9129 18.5951C15.6968 19.6136 14.6728 20.2566 13.7299 19.9702C12.9843 19.7433 12.5358 19.1273 12.4548 18.2195C12.3845 17.4333 11.8091 16.8903 11.0715 16.9146C10.3258 16.9389 9.7774 17.5117 9.79631 18.306C9.84224 20.1728 10.7554 21.4967 12.4142 22.3072C12.7249 22.4585 12.9032 22.5989 12.9465 22.9745C13.0329 23.6958 13.5408 24.1092 14.2298 24.1146C14.943 24.12 15.459 23.7012 15.5509 22.9556C15.5941 22.6043 15.7481 22.4585 16.0534 22.3261C18.2174 21.3778 19.2792 18.9517 18.4525 16.7471C17.7176 14.783 16.2101 13.8671 14.1514 13.7537C13.1302 13.6969 12.4223 12.8945 12.4548 11.903C12.4845 10.9926 13.2734 10.2091 14.1946 10.1713C15.1348 10.1334 15.9642 10.9169 16.0372 11.9057C16.102 12.7811 16.6559 13.3484 17.4204 13.3214C18.2201 13.2998 18.7226 12.6865 18.6983 11.4437Z" fill="#3E399B"/>
</svg>
