<svg width="40" height="30" viewBox="0 0 40 30" fill="none" xmlns="http://www.w3.org/2000/svg">
<path d="M28.6411 13.8202C28.4365 13.8202 28.2765 13.8202 28.1166 13.8202C24.4451 13.8202 20.7736 13.8202 17.1021 13.8202C16.1276 13.8202 15.6328 13.3255 15.6328 12.3471C15.6328 10.6955 15.6328 9.04021 15.6328 7.38861C15.6328 6.54793 16.1573 6.01971 16.998 6.01971C20.6955 6.01971 24.3967 6.01971 28.0943 6.01971C28.2542 6.01971 28.4179 6.01971 28.6411 6.01971C28.6411 5.85976 28.6411 5.7184 28.6411 5.57333C28.6411 4.43506 28.6448 3.29679 28.6411 2.15852C28.6373 1.58195 28.9015 1.16533 29.4111 0.930979C29.9467 0.68919 30.4526 0.789625 30.8692 1.20253C33.4694 3.79525 36.0696 6.38797 38.6586 8.99186C39.2463 9.58331 39.1942 10.3273 38.5581 10.9634C36.1365 13.3887 33.7112 15.8103 31.2859 18.2356C31.1408 18.3807 31.0032 18.5295 30.8506 18.6634C30.4303 19.0466 29.9356 19.1433 29.4222 18.9201C28.9052 18.6969 28.6373 18.2803 28.6411 17.7C28.6448 16.4315 28.6411 15.1556 28.6411 13.8202Z" fill="#3E399B"/>
<path d="M10.429 24.2283C10.429 25.5414 10.429 26.7875 10.429 28.0337C10.429 28.6772 10.15 29.131 9.59578 29.3431C9.04525 29.5551 8.56167 29.4212 8.14877 29.0083C5.58208 26.4379 3.01168 23.8749 0.448715 21.3008C-0.146459 20.7056 -0.150178 19.9468 0.441275 19.3553C3.00424 16.7849 5.57464 14.2182 8.14133 11.6515C8.56539 11.2275 9.06757 11.0861 9.62554 11.3242C10.1761 11.5585 10.4365 11.9975 10.4327 12.6113C10.4216 13.8686 10.429 15.1259 10.429 16.4241C10.6225 16.4241 10.7787 16.4241 10.9386 16.4241C14.625 16.4241 18.3076 16.4241 21.994 16.4241C22.9388 16.4241 23.4373 16.93 23.4373 17.8823C23.4373 19.5339 23.4373 21.1892 23.4373 22.8408C23.4373 23.7038 22.9128 24.2246 22.0461 24.2246C18.3485 24.2246 14.6473 24.2246 10.9498 24.2246C10.7899 24.2283 10.6299 24.2283 10.429 24.2283Z" fill="#3E399B"/>
</svg>
