<svg width="106" height="24" viewBox="0 0 106 24" fill="none" xmlns="http://www.w3.org/2000/svg">
<g clip-path="url(#clip0_1_2718)">
<path d="M52.88 6.24517C48.7408 6.24517 45.7564 8.8305 45.7564 12.7085C45.7564 16.5865 49.1157 19.1718 53.255 19.1718C55.7557 19.1718 57.9603 18.2239 59.3251 16.626L56.4568 15.0389C55.6995 15.8324 54.5485 16.2956 53.255 16.2956C51.459 16.2956 49.9331 15.398 49.3669 13.9617H59.8725C59.9549 13.5595 60.0037 13.143 60.0037 12.7049C60.0037 8.8305 57.0192 6.24517 52.88 6.24517ZM49.3332 11.4517C49.8019 10.019 51.0841 9.11776 52.8763 9.11776C54.6722 9.11776 55.9544 10.019 56.4194 11.4517H49.3332ZM93.2524 6.24517C89.1132 6.24517 86.1287 8.8305 86.1287 12.7085C86.1287 16.5865 89.4881 19.1718 93.6273 19.1718C96.1281 19.1718 98.3327 18.2239 99.6974 16.626L96.8292 15.0389C96.0719 15.8324 94.9208 16.2956 93.6273 16.2956C91.8314 16.2956 90.3055 15.398 89.7393 13.9617H100.245C100.327 13.5595 100.376 13.143 100.376 12.7049C100.376 8.8305 97.3916 6.24517 93.2524 6.24517ZM89.7093 11.4517C90.178 10.019 91.4602 9.11776 93.2524 9.11776C95.0483 9.11776 96.3306 10.019 96.7955 11.4517H89.7093ZM75.0758 12.7085C75.0758 14.8629 76.5456 16.2992 78.8251 16.2992C80.3698 16.2992 81.5284 15.6278 82.1245 14.5326L85.004 16.1233C83.8117 18.0264 81.5771 19.1718 78.8251 19.1718C74.6822 19.1718 71.7015 16.5865 71.7015 12.7085C71.7015 8.8305 74.6859 6.24517 78.8251 6.24517C81.5771 6.24517 83.8079 7.39062 85.004 9.29371L82.1245 10.8844C81.5284 9.78923 80.3698 9.11776 78.8251 9.11776C76.5493 9.11776 75.0758 10.5541 75.0758 12.7085ZM106 2.29537V18.8127H102.626V2.29537H106ZM13.8536 0.5L27.7073 23.4807H0L13.8536 0.5ZM48.4896 2.29537L38.1003 19.5309L27.711 2.29537H31.6065L38.1003 13.0676L44.5941 2.29537H48.4896ZM70.5767 6.60425V10.0837C70.2018 9.97954 69.8043 9.90772 69.3769 9.90772C67.1986 9.90772 65.6276 11.344 65.6276 13.4985V18.8127H62.2533V6.60425H65.6276V9.90772C65.6276 8.08363 67.8435 6.60425 70.5767 6.60425Z" fill="black"/>
</g>
<defs>
<clipPath id="clip0_1_2718">
<rect width="106" height="23" fill="white" transform="translate(0 0.5)"/>
</clipPath>
</defs>
</svg>
