<svg width="107" height="26" viewBox="0 0 107 26" fill="none" xmlns="http://www.w3.org/2000/svg">
<g clip-path="url(#clip0_1_2712)">
<path d="M33.4143 4.36434C33.0155 2.84437 31.8642 1.65705 30.3903 1.24575C27.7388 0.5 17.0669 0.5 17.0669 0.5C17.0669 0.5 6.39506 0.522598 3.74353 1.26835C2.26964 1.67964 1.1183 2.86697 0.719475 4.38693C-0.0825572 9.2456 -0.393728 16.6489 0.741388 21.3132C1.14022 22.8331 2.29156 24.0205 3.76544 24.4318C6.41697 25.1775 17.0888 25.1775 17.0888 25.1775C17.0888 25.1775 27.7607 25.1775 30.4122 24.4318C31.8861 24.0205 33.0374 22.8331 33.4362 21.3132C34.2821 16.4477 34.5429 9.049 33.4143 4.36434Z" fill="#FF0000"/>
<path d="M13.6703 18.1269L22.5234 12.8388L13.6703 7.55078V18.1269Z" fill="white"/>
<path d="M102.661 7.66366C103.822 7.66366 104.699 7.88964 105.312 8.31901C105.926 8.74838 106.364 9.42634 106.627 10.3529C106.89 11.2794 107 12.5449 107 14.172V16.816H101.368V17.6296L101.456 19.8668C101.521 20.364 101.631 20.7256 101.806 20.9515C101.981 21.1775 102.266 21.2905 102.639 21.2905C103.143 21.2905 103.494 21.0871 103.669 20.6804C103.866 20.2736 103.954 19.5956 103.976 18.6691L106.89 18.8499C106.912 18.9855 106.912 19.1663 106.912 19.3923C106.912 20.816 106.539 21.8781 105.773 22.5786C105.006 23.2792 103.954 23.6408 102.573 23.6408C100.908 23.6408 99.7463 23.0984 99.0889 22.0363C98.4315 20.9741 98.0809 19.3019 98.0809 17.0646V14.3302C98.1554 10.4885 98.8106 7.67496 102.661 7.66366ZM62.1429 7.95744V19.2793C62.1429 19.9572 62.2086 20.4544 62.362 20.7482C62.6732 21.3764 63.4796 21.216 63.9178 20.9064C64.1709 20.73 64.3748 20.4885 64.5095 20.2058V7.95744H67.8623V23.3922H65.2327L64.9478 21.4939H64.882C64.1589 22.9176 63.0851 23.6408 61.6608 23.6408C59.4684 23.635 58.9322 22.0063 58.8045 20.352L58.7961 20.2353C58.7794 19.9822 58.7716 19.7294 58.7682 19.4827V7.95744H62.1429ZM79.4326 7.95744V19.2793C79.4326 19.9572 79.4983 20.4544 79.6517 20.7482C79.9629 21.3764 80.7693 21.216 81.2076 20.9064C81.4606 20.73 81.6645 20.4885 81.7992 20.2058V7.95744H85.152V23.3922H82.5224L82.2375 21.4939H82.1717C81.4486 22.9176 80.3748 23.6408 78.9505 23.6408C76.7581 23.635 76.2219 22.0063 76.0942 20.352L76.0858 20.2353C76.0691 19.9822 76.0613 19.7294 76.0579 19.4827V7.95744H79.4326ZM52.4133 7.66366C53.509 7.66366 54.4074 7.88964 55.0648 8.36421C55.7222 8.83878 56.2262 9.56193 56.533 10.5563C56.8398 11.5506 56.9932 12.8839 56.9932 14.5336V16.7708C56.9932 18.4205 56.8398 19.7312 56.533 20.7256C56.2262 21.7199 55.7441 22.443 55.0648 22.9176C54.3855 23.3696 53.4651 23.6182 52.3256 23.6182C51.1423 23.6408 50.2219 23.3922 49.5426 22.9402C48.8633 22.4656 48.3812 21.7425 48.0963 20.7482C47.8115 19.7538 47.68 18.4431 47.68 16.7934V14.5562C47.68 12.9065 47.8334 11.5506 48.1621 10.5563C48.4908 9.53933 48.9948 8.81618 49.696 8.36421C50.3972 7.91224 51.2957 7.66366 52.4133 7.66366ZM90.4112 1.47168V9.60712H90.4331C90.7399 9.01956 91.1343 8.545 91.6822 8.18342C92.1938 7.82855 92.7967 7.63966 93.4133 7.64106C94.2241 7.64106 94.8377 7.86704 95.2979 8.29641C95.7581 8.74838 96.0868 9.44894 96.284 10.4207C96.4751 11.362 96.5839 12.6639 96.5905 14.3058L96.5908 14.4658V16.9064C96.5908 19.1889 96.3059 20.8838 95.78 21.9685C95.2322 23.0532 94.3994 23.5956 93.2599 23.5956C92.6245 23.5956 92.0547 23.4374 91.5288 23.1436C91.0633 22.8639 90.6779 22.4629 90.4108 21.9816L90.3674 21.9007H90.3016L89.951 23.3696H87.168V1.47168H90.4112ZM77.0002 2.26263V5.06483H73.6693V23.3922H70.3823V5.06483H67.0296V2.26263H77.0002ZM40.8649 2.26263L40.8668 2.27113C40.8989 2.41811 41.342 4.44938 41.8292 6.81584L41.8677 7.00334C41.887 7.0974 41.9064 7.19193 41.9258 7.28682L41.9646 7.47705C41.9711 7.50883 41.9776 7.54064 41.9841 7.57248L42.0229 7.76385C42.0294 7.7958 42.0359 7.82776 42.0424 7.85975L42.0812 8.05188L42.1377 8.33267C42.4666 9.97141 42.7807 11.615 42.9686 12.7935H43.0562C43.2364 11.7363 43.4978 10.3835 43.7766 9.0023L43.8497 8.64152C43.8864 8.46099 43.9233 8.28037 43.9603 8.10026L44.0178 7.82057C44.5543 5.21858 45.088 2.78778 45.1873 2.33708L45.1938 2.30798C45.2003 2.2781 45.2038 2.26263 45.2038 2.26263H48.5565L44.6778 16.5223V23.3696H41.3689V16.5449H41.347L37.5121 2.26263H40.8649ZM52.3475 10.0591C51.8874 10.0591 51.5806 10.3077 51.3834 10.8274C51.1861 11.3472 51.0985 12.1382 51.0985 13.2455V18.0589C51.0985 19.1889 51.1861 20.025 51.3614 20.5222C51.5367 21.0193 51.8654 21.2679 52.3475 21.2679C52.8077 21.2679 53.1364 21.0193 53.3337 20.5222C53.5309 20.025 53.6185 19.1889 53.6185 18.0589V13.2455C53.6185 12.1382 53.5309 11.3246 53.3337 10.8274C53.1364 10.3077 52.8077 10.0591 52.3475 10.0591ZM91.0029 10.5111C90.7358 10.7653 90.5458 11.0791 90.4328 11.4711L90.4112 11.5506V20.3188C90.6829 20.7934 91.0686 21.1097 91.7479 21.1323C92.0985 21.1323 92.3834 20.9967 92.6025 20.7256C92.8217 20.4544 92.9751 20.0024 93.0627 19.3697C93.1469 18.7622 93.1906 17.9257 93.194 16.86L93.1942 16.7256V14.7144C93.1942 13.4941 93.1504 12.5675 93.0846 11.9122C92.997 11.2568 92.8874 10.7822 92.6902 10.5111C92.3089 9.9461 91.485 9.95288 91.0029 10.5111ZM102.595 9.9913C102.223 10.0139 101.96 10.1269 101.806 10.3303C101.631 10.5563 101.521 10.8952 101.456 11.3924C101.391 11.8796 101.369 13.5822 101.368 13.6502L101.368 14.7596H103.822L103.822 13.7812L103.822 13.8C103.821 14.1421 103.814 13.6014 103.799 12.9379L103.797 12.8487C103.783 12.2654 103.763 11.6152 103.735 11.3924C103.669 10.8726 103.559 10.5111 103.384 10.3077C103.209 10.1043 102.946 9.9913 102.595 9.9913Z" fill="#282828"/>
</g>
<defs>
<clipPath id="clip0_1_2712">
<rect width="107" height="25" fill="white" transform="translate(0 0.5)"/>
</clipPath>
</defs>
</svg>
